<?xml version="1.0" standalone="no"?>
<!DOCTYPE svg PUBLIC "-//W3C//DTD SVG 20010904//EN"
 "http://www.w3.org/TR/2001/REC-SVG-20010904/DTD/svg10.dtd">
<svg version="1.0" xmlns="http://www.w3.org/2000/svg"
 width="1280.000000pt" height="1264.000000pt" viewBox="0 0 1280.000000 1264.000000"
 preserveAspectRatio="xMidYMid meet">
<metadata>
Created by potrace 1.15, written by Peter Selinger 2001-2017
</metadata>
<g transform="translate(0.000000,1264.000000) scale(0.100000,-0.100000)"
fill="#000000" stroke="none">
<path d="M10645 12443 c-158 -248 -320 -452 -342 -430 -3 4 25 53 64 110 72
106 148 235 141 242 -2 2 -55 -67 -118 -153 -204 -280 -306 -401 -445 -527
-44 -40 -56 -57 -47 -63 16 -11 -108 -192 -183 -267 -107 -106 -487 -567 -559
-677 -35 -54 -46 -59 -46 -21 0 29 -50 246 -55 241 -2 -2 7 -72 20 -156 l23
-152 -30 -57 c-21 -41 -24 -51 -9 -33 30 36 26 16 -10 -49 -87 -156 -172 -301
-175 -301 -3 0 -2 11 2 25 8 32 -13 34 -25 3 -9 -21 -53 -116 -199 -418 -30
-63 -69 -150 -87 -193 -27 -66 -40 -85 -90 -127 -33 -28 -63 -50 -67 -50 -10
0 -11 11 -9 280 3 332 -43 963 -81 1118 -15 60 -19 47 -8 -24 9 -57 52 -649
65 -906 4 -70 4 -170 0 -224 l-8 -96 -32 61 c-18 34 -45 78 -60 97 -19 25 -34
67 -52 147 -13 62 -45 173 -70 247 -46 136 -133 344 -140 336 -2 -2 7 -39 22
-82 66 -203 159 -628 194 -893 29 -213 30 -201 -32 -248 -29 -22 -71 -50 -94
-61 -31 -16 -40 -26 -36 -40 8 -34 -57 -62 -149 -65 -74 -2 -82 -1 -95 20 -8
13 -19 21 -23 18 -4 -3 -34 0 -66 5 -33 6 -74 13 -91 16 -33 5 -33 5 -33 63 0
154 -104 490 -218 707 -29 54 -27 40 4 -37 58 -140 106 -279 134 -383 31 -116
58 -302 47 -329 -10 -26 -95 -6 -167 39 -19 12 -49 22 -65 22 -32 1 -125 33
-162 58 -25 16 -53 9 -53 -13 0 -9 18 -36 41 -60 39 -43 40 -45 24 -63 -10
-11 -22 -17 -28 -13 -5 3 -7 2 -4 -4 4 -6 3 -29 -1 -52 l-7 -41 -28 36 c-28
35 -29 36 -10 57 l18 21 -27 -17 c-15 -9 -32 -17 -39 -17 -6 0 -22 -9 -36 -20
-39 -30 -57 -25 -77 21 -24 54 -66 79 -135 79 -62 0 -158 -23 -214 -51 -51
-27 -41 -35 20 -15 66 21 181 38 206 30 15 -5 -22 -17 -118 -39 -169 -40 -309
-84 -429 -136 -49 -22 -98 -39 -108 -39 -10 0 -18 -4 -18 -9 0 -5 -25 -22 -55
-37 -75 -39 -69 -58 9 -28 14 5 15 2 6 -22 -6 -16 -13 -35 -16 -43 -3 -9 -39
20 -107 86 -161 157 -270 230 -302 203 -21 -18 -20 -22 25 -73 22 -25 40 -47
40 -49 0 -3 -34 12 -74 33 -41 21 -113 50 -161 65 l-85 28 5 61 c3 33 9 218
15 410 6 193 12 417 15 499 3 82 2 147 -1 143 -5 -5 -58 -825 -66 -1026 l-3
-75 -64 3 c-60 2 -71 7 -173 72 -60 38 -113 69 -118 69 -23 0 -20 -25 8 -53
16 -18 35 -41 41 -52 11 -18 12 -18 7 7 -6 26 1 23 114 -50 l119 -77 -5 -35
c-3 -19 -1 -48 5 -64 7 -16 10 -30 8 -33 -2 -2 -30 11 -62 29 -45 26 -66 46
-91 88 -18 30 -35 59 -37 65 -2 6 -14 5 -31 -3 -27 -12 -27 -13 -12 -37 38
-58 -3 -37 -89 45 -155 147 -488 388 -523 378 -5 -2 -37 17 -70 42 -55 41 -67
58 -136 185 -42 77 -76 137 -76 133 0 -3 13 -36 30 -72 16 -36 28 -66 26 -66
-2 0 -41 46 -86 103 -45 56 -106 131 -135 167 -61 74 -258 267 -423 415 -61
55 -151 147 -199 205 -121 144 -544 567 -620 618 -36 24 -68 39 -77 36 -9 -3
-38 12 -73 38 -32 25 -93 68 -135 96 -52 35 -108 87 -176 164 -55 62 -119 131
-142 153 l-42 40 38 -60 c20 -33 57 -86 81 -117 24 -32 42 -58 39 -58 -3 0
-21 10 -41 21 -20 12 -39 19 -42 15 -4 -3 -1 -6 7 -6 10 0 10 -3 0 -15 -10
-13 -22 -9 -83 25 -39 21 -72 46 -73 55 -1 9 -42 53 -91 97 -48 45 -128 122
-177 172 -92 94 -92 79 0 -34 47 -59 135 -143 221 -211 18 -15 30 -29 27 -32
-3 -3 15 -20 39 -39 49 -37 152 -146 145 -153 -2 -2 -28 21 -58 51 -29 29 -58
54 -63 54 -6 0 -57 46 -116 103 -114 111 -115 108 -1 -27 43 -52 66 -87 55
-82 -23 8 -16 2 38 -38 21 -15 36 -30 33 -33 -3 -3 -11 -1 -18 4 -7 5 -40 24
-73 42 -56 30 -58 31 -30 6 l30 -26 -28 11 c-54 20 -41 9 45 -38 98 -52 236
-143 237 -154 1 -5 -13 -8 -29 -8 -35 0 -132 51 -172 90 -28 29 -318 203 -325
196 -5 -5 165 -126 270 -192 68 -42 76 -50 59 -57 -16 -7 -47 4 -137 48 -64
32 -118 55 -121 52 -3 -2 32 -25 78 -51 46 -25 78 -45 72 -46 -16 0 -180 47
-228 66 -55 21 -55 11 1 -21 65 -36 146 -62 245 -79 46 -7 91 -17 101 -21 13
-5 16 -3 11 8 -8 22 31 32 57 14 20 -15 20 -15 -15 -27 -44 -14 -52 -47 -8
-34 15 5 48 9 74 9 27 0 48 4 48 9 0 14 177 -1 265 -24 44 -11 122 -41 174
-66 110 -54 194 -131 260 -240 38 -61 42 -65 37 -34 -16 90 -97 203 -187 261
-31 21 -46 36 -40 42 6 6 24 -1 48 -21 61 -48 244 -242 238 -252 -3 -5 6 -17
20 -27 21 -15 230 -269 373 -453 74 -94 67 -78 -20 53 -32 48 -56 87 -54 87 2
0 37 -42 77 -92 68 -87 187 -229 253 -301 l28 -32 -32 60 c-18 33 -48 83 -67
110 -57 82 328 -307 411 -415 40 -52 122 -169 181 -259 60 -89 127 -182 150
-206 23 -23 60 -76 82 -116 71 -129 283 -539 283 -546 0 -4 -38 51 -85 122
-63 96 -85 138 -85 162 0 34 -16 46 -22 16 -2 -13 -16 -1 -49 42 -62 80 -151
162 -183 171 -42 10 -39 0 10 -35 45 -33 146 -145 198 -219 15 -22 30 -57 33
-78 l6 -39 -74 70 c-41 39 -88 82 -105 96 -18 14 -51 57 -75 95 -91 145 -226
323 -333 438 -26 28 -68 95 -101 159 -70 140 -151 261 -229 345 -81 86 -206
168 -206 134 0 -4 29 -27 65 -50 118 -78 276 -284 395 -515 30 -58 57 -105 60
-104 3 1 21 -15 39 -35 18 -21 31 -38 28 -38 -3 0 -61 33 -128 73 -146 86
-343 194 -486 266 -161 80 -415 192 -427 188 -6 -3 27 -22 74 -43 167 -75 502
-245 702 -355 112 -62 223 -123 248 -135 28 -14 63 -45 91 -81 48 -61 169
-227 184 -253 11 -18 17 -22 -129 94 -60 48 -114 85 -119 83 -26 -8 -11 -29
78 -102 52 -43 95 -79 95 -81 0 -1 -46 27 -102 62 -128 81 -571 301 -862 429
-121 53 -269 119 -329 146 -60 28 -111 48 -113 46 -9 -8 44 -35 291 -146 138
-63 304 -138 370 -168 351 -159 845 -448 944 -552 l34 -35 -17 33 c-21 39 -23
40 81 -42 58 -46 61 -51 72 -110 7 -34 15 -70 18 -81 8 -30 -31 -15 -169 65
-381 218 -826 415 -1139 504 -136 39 -137 39 -123 26 5 -5 51 -21 102 -35 244
-69 504 -178 892 -374 284 -143 345 -177 260 -147 -83 30 -423 112 -575 139
-98 18 -207 46 -314 82 -89 31 -166 53 -169 50 -8 -9 -7 -9 121 -56 65 -24
120 -47 123 -52 3 -4 15 -8 27 -8 38 0 629 -223 912 -345 71 -30 32 -7 -75 46
-120 58 -262 118 -480 201 -167 64 -158 68 47 22 167 -37 482 -123 529 -144
37 -16 43 -23 50 -61 4 -24 9 -37 11 -29 2 8 -5 62 -16 120 -10 58 -17 107
-15 109 2 3 19 -9 36 -25 22 -19 18 -13 -10 18 -27 30 -42 57 -42 74 0 21 17
4 96 -98 102 -132 115 -154 203 -347 l57 -126 -29 -40 c-46 -62 -80 -142 -69
-161 7 -13 15 -3 40 49 l30 66 33 -9 c18 -5 36 -13 40 -17 4 -5 41 -92 82
-196 l76 -187 -24 -54 c-28 -63 -118 -356 -112 -363 3 -2 14 24 26 59 51 151
116 317 123 310 20 -21 178 -466 227 -641 35 -124 84 -356 79 -371 -4 -12
-123 168 -123 185 -1 35 -55 51 -55 16 0 -10 26 -59 58 -107 85 -129 114 -182
105 -187 -5 -3 -25 27 -46 66 -39 75 -143 218 -164 225 -25 8 -13 -41 20 -82
47 -58 177 -242 177 -250 0 -4 7 -14 15 -22 17 -17 19 -11 6 15 -5 9 -6 23 -2
30 6 8 18 -3 39 -36 32 -50 54 -140 67 -264 6 -66 -8 -244 -25 -306 -4 -18 -5
-33 0 -33 21 0 50 165 50 287 0 70 -16 164 -36 218 -7 18 -6 19 11 5 17 -14
17 -13 11 10 -4 14 -26 61 -47 105 -23 45 -36 81 -30 83 6 2 11 17 11 33 0 16
14 66 31 110 17 44 28 87 25 96 -9 23 -23 7 -45 -53 -22 -55 -20 -58 -42 71
-25 144 -102 389 -228 719 l-61 158 21 30 c25 34 18 49 -11 23 -11 -10 -22
-16 -23 -14 -4 4 -72 169 -105 255 l-20 50 87 -4 c128 -6 141 2 26 17 -131 16
-129 15 -144 59 -15 42 -24 61 -132 299 -109 238 -279 555 -429 798 -20 33
-40 67 -45 74 -14 24 43 -21 145 -113 113 -103 153 -145 358 -376 85 -96 164
-184 175 -195 l20 -20 -6 20 c-2 11 -8 29 -13 39 -6 15 -4 17 6 11 8 -5 -6 18
-31 51 -25 32 -49 65 -54 73 -15 25 56 -22 87 -59 17 -19 28 -27 24 -17 -5 17
8 9 105 -62 26 -19 53 2 38 30 -13 25 -7 24 44 -7 66 -41 67 -43 67 -193 0
-431 67 -882 214 -1440 30 -113 57 -218 60 -233 8 -34 36 -38 36 -5 0 12 -20
101 -45 197 -98 379 -134 545 -166 757 -47 316 -74 747 -49 763 11 7 12 16 3
44 -11 35 -1 52 11 20 3 -8 10 -13 15 -10 10 6 82 -44 140 -98 l34 -31 -19 33
c-10 18 -53 70 -95 115 -65 71 -99 125 -99 159 0 19 144 -121 211 -205 55 -69
75 -88 92 -85 14 2 23 11 25 26 2 13 8 20 14 16 7 -5 8 -2 2 7 -8 12 -13 99
-6 99 11 0 142 -104 142 -113 0 -7 -16 -91 -35 -187 -38 -191 -42 -232 -22
-248 20 -17 46 6 118 103 34 46 65 83 67 80 8 -8 -57 -161 -93 -221 -19 -31
-32 -61 -29 -66 9 -14 23 0 45 45 12 23 49 82 83 131 65 94 72 95 75 9 1 -19
10 -42 22 -54 29 -29 17 -55 -29 -63 -87 -13 -185 -112 -259 -261 l-35 -70
109 115 c61 63 129 125 151 138 l41 23 -34 -83 c-41 -102 -50 -147 -39 -195 8
-37 8 -36 14 27 5 54 64 228 84 248 13 12 56 -11 75 -41 25 -41 40 -104 55
-231 11 -102 25 -126 46 -85 16 28 78 236 126 417 31 121 35 145 23 153 -8 5
-18 7 -24 6 -14 -5 -39 -98 -91 -332 -25 -115 -50 -214 -55 -219 -5 -6 -9 20
-10 65 0 40 -5 101 -10 134 -15 97 -26 348 -16 369 6 13 6 16 -2 12 -17 -11
-14 7 25 124 36 109 39 148 8 136 -12 -5 -15 -2 -10 10 3 8 6 18 6 20 0 2 5 4
11 4 14 0 85 -61 82 -70 -1 -4 3 -7 10 -8 7 0 29 -7 50 -14 26 -9 37 -19 37
-33 0 -27 37 -216 47 -240 5 -12 10 26 13 100 l5 120 17 -35 c11 -22 17 -28
18 -17 0 17 2 17 22 3 26 -19 80 -21 110 -5 20 11 21 9 15 -27 -3 -22 -8 -46
-12 -55 -12 -30 35 -31 59 -2 11 15 59 66 106 115 80 84 85 87 93 66 5 -13 10
-95 11 -183 2 -182 11 -218 55 -213 18 2 36 18 58 50 17 26 33 52 35 58 2 7
13 7 36 -1 l32 -11 0 -85 c0 -119 25 -155 68 -96 l19 27 17 -56 c20 -69 42
-91 62 -63 10 14 14 53 14 145 0 112 2 129 19 144 18 17 19 15 25 -51 4 -37
11 -147 16 -243 6 -96 14 -178 19 -183 13 -13 23 137 19 291 -2 72 0 132 4
132 18 0 53 -84 84 -203 37 -141 96 -345 113 -390 6 -15 18 -27 27 -27 15 0
16 12 12 108 -4 101 -7 113 -52 217 -26 61 -67 160 -90 220 -63 160 -152 367
-203 469 -28 57 -41 92 -35 98 6 6 12 6 16 -1 4 -6 16 -11 26 -11 14 0 22 12
31 43 12 42 73 112 90 101 5 -3 9 0 9 7 0 7 3 10 6 6 3 -3 -12 -28 -35 -55
-23 -26 -41 -54 -41 -60 0 -20 55 -14 75 8 21 23 35 26 35 7 0 -7 7 -22 15
-33 13 -17 14 -15 9 27 -5 36 -3 47 9 52 11 4 21 -8 36 -44 12 -27 26 -49 31
-49 6 0 10 34 10 77 l0 76 47 46 47 45 14 -34 c8 -19 16 -58 19 -87 9 -85 22
-72 41 42 l9 50 13 -30 c7 -17 12 -61 11 -99 -1 -83 15 -79 29 6 5 31 21 80
36 109 l27 54 12 -42 c7 -23 25 -103 40 -178 16 -74 30 -133 32 -131 7 7 -26
237 -42 296 -25 94 -19 105 70 126 17 4 40 14 53 22 26 17 27 13 6 -36 -24
-57 -44 -112 -39 -112 2 0 22 26 44 58 23 31 61 79 86 107 l45 49 0 -310 0
-310 -32 -31 c-27 -25 -164 -103 -183 -103 -2 0 -21 33 -41 73 -49 97 -143
239 -155 231 -11 -6 -10 -8 41 -84 58 -86 132 -228 125 -240 -3 -5 -2 -10 3
-10 20 0 79 -172 122 -350 l20 -85 -25 -120 c-35 -167 -86 -377 -95 -395 -6
-10 -10 -2 -15 25 -32 188 -257 905 -283 905 -22 0 -6 -66 63 -265 34 -99 79
-236 99 -305 41 -141 106 -420 106 -453 0 -12 -13 -62 -29 -112 l-29 -90 -4
45 c-3 39 -5 32 -15 -45 -7 -49 -13 -97 -14 -105 -5 -37 2 -100 11 -100 6 0
10 24 10 53 0 37 12 85 39 158 21 57 41 111 44 119 4 10 6 9 6 -6 1 -21 -49
-176 -68 -212 -8 -15 -7 -23 4 -32 11 -9 17 -6 29 17 8 15 15 24 16 20 0 -4
-23 -102 -51 -217 -29 -118 -48 -217 -45 -227 10 -25 19 -6 41 87 10 41 33
123 52 183 19 59 32 115 29 125 -3 9 1 42 8 72 13 51 14 53 24 30 8 -20 9 -14
5 31 -4 45 2 81 35 196 22 77 51 185 64 239 21 89 24 96 29 64 5 -26 7 -19 7
30 0 36 11 135 25 220 30 176 54 377 63 527 l7 102 39 16 c21 8 42 15 47 15 9
0 41 -75 60 -140 16 -56 42 -206 56 -325 l13 -110 1 92 c2 150 -37 370 -81
456 -11 22 -18 40 -16 42 2 2 57 21 123 44 111 38 238 64 250 53 19 -19 -17
-101 -97 -219 -27 -40 -47 -73 -44 -73 8 0 134 176 155 217 38 76 22 113 -47
113 -38 0 -176 -40 -277 -80 -43 -17 -84 -29 -92 -26 -7 3 -13 1 -13 -4 0 -12
-60 -44 -67 -36 -12 12 10 37 84 92 43 33 89 67 103 76 17 11 20 17 10 17 -9
1 -58 -31 -109 -70 -87 -66 -93 -69 -87 -42 46 219 86 537 86 680 l0 101 40
51 c22 28 42 51 45 51 2 0 -12 -35 -30 -77 -19 -43 -32 -79 -30 -82 20 -19 71
68 145 244 97 231 160 360 264 535 196 331 208 353 287 515 78 159 79 161 288
413 205 248 332 381 558 588 124 114 121 112 322 200 l144 63 74 -10 c79 -11
172 -40 212 -66 l26 -16 -24 26 c-31 34 -97 65 -174 81 -60 13 -61 18 -6 30
47 10 169 129 208 203 12 23 12 25 -4 19 -11 -4 -5 10 18 41 41 57 141 233
135 238 -2 3 -47 -55 -99 -127 -52 -73 -122 -168 -157 -211 -34 -43 -60 -82
-57 -86 7 -12 -22 -34 -37 -28 -7 2 -22 -3 -33 -11 -11 -9 8 13 41 48 101 106
266 331 383 523 22 37 41 70 41 74 0 11 -53 -52 -132 -157 -39 -52 -97 -130
-130 -173 -32 -43 -56 -83 -52 -89 12 -20 -230 -250 -267 -253 -10 -1 -27 -9
-38 -19 -11 -10 -25 -16 -31 -14 -7 2 21 29 61 60 71 55 231 208 217 208 -4 0
-66 -45 -137 -100 -125 -97 -234 -170 -255 -170 -5 0 45 55 111 123 66 67 142
147 169 177 l49 54 -45 -34 c-32 -25 -41 -29 -30 -13 119 171 177 264 216 341
25 51 44 95 41 98 -2 3 -44 -57 -92 -133z m-335 -462 c0 -8 -213 -221 -222
-221 -4 0 28 42 71 94 44 52 87 105 96 119 11 17 22 23 35 20 11 -3 20 -8 20
-12z m-7881 -707 c11 -10 6 -11 -30 -3 -24 6 -44 11 -44 12 0 1 -20 24 -45 51
l-45 48 75 -47 c41 -26 81 -54 89 -61z m-24 -67 c7 -7 4 -8 -8 -3 -10 3 -31 6
-45 6 -22 0 -27 5 -27 24 l0 25 35 -21 c19 -12 40 -26 45 -31z m116 7 c19 -13
38 -24 42 -24 12 0 8 35 -5 48 -7 7 -9 12 -4 12 7 0 156 -108 156 -113 0 -2
-30 7 -67 19 -38 13 -99 29 -136 35 -45 8 -71 18 -75 28 -3 9 -10 20 -16 24
-27 20 73 -7 105 -29z m5823 -1721 c20 -77 20 -103 2 -103 -8 0 -20 -17 -27
-37 -12 -37 -14 -32 -34 127 -12 91 -25 181 -28 200 -10 56 69 -114 87 -187z
m-4024 62 c0 -11 -14 7 -31 40 -7 13 -3 12 10 -5 11 -14 21 -29 21 -35z m315
-249 c17 -14 26 -25 20 -25 -5 0 -28 16 -50 36 -43 39 -19 30 30 -11z m3740
-153 c-9 -148 -36 -376 -46 -393 -5 -9 -9 73 -9 194 0 206 0 210 25 253 14 23
28 43 31 43 3 0 3 -44 -1 -97z m-162 -25 c-27 -52 -55 -73 -123 -93 -41 -12
-9 14 36 30 44 15 55 32 24 37 -18 2 -13 9 32 40 29 20 54 37 56 37 2 1 -9
-23 -25 -51z m-885 15 c71 -8 66 -19 -7 -15 -40 3 -64 9 -73 20 -11 14 -10 15
7 8 11 -4 44 -10 73 -13z m-2415 -92 c42 -42 77 -79 77 -84 0 -16 -15 -3 -105
93 -102 108 -88 103 28 -9z m1990 25 c14 -20 14 -26 3 -35 -8 -7 -17 -23 -20
-37 -6 -22 -11 -25 -36 -19 -40 9 -70 -22 -70 -72 l0 -36 -31 44 c-45 64 -46
64 -71 47 -48 -32 -90 -32 -178 -1 -14 5 336 129 371 132 9 0 24 -10 32 -23z
m477 -20 c0 -49 -11 -51 -32 -5 -10 23 -18 42 -18 44 0 1 11 0 25 -3 20 -3 25
-10 25 -36z m-130 19 c17 -20 11 -25 -18 -14 -13 5 -20 13 -17 19 9 14 21 12
35 -5z m301 -10 c30 -6 38 -12 47 -41 9 -31 8 -35 -18 -54 -15 -11 -32 -20
-37 -20 -7 0 -58 88 -72 123 -2 6 7 7 20 4 13 -3 40 -9 60 -12z m-321 -23 l25
-17 -32 -31 -32 -31 -5 24 c-7 25 2 73 13 73 3 0 17 -8 31 -18z m-1867 -3 c30
-8 37 -15 37 -35 l0 -26 -42 33 c-24 18 -45 34 -47 36 -8 6 15 3 52 -8z m222
-70 c129 -50 129 -51 121 -84 l-7 -28 -16 22 c-14 21 -16 21 -34 5 -18 -16
-18 -18 13 -73 l32 -56 -60 54 c-32 30 -75 69 -96 88 -20 18 -41 33 -47 33
-16 0 -13 17 4 24 26 10 16 25 -20 32 -21 4 -35 12 -35 21 0 17 8 15 145 -38z
m1541 -105 c10 -18 11 -25 0 -39 -11 -16 -17 -16 -49 -4 -52 18 -94 66 -101
114 -6 38 -5 41 31 60 l38 20 34 -65 c18 -36 39 -75 47 -86z m204 130 c0 -17
-22 -14 -28 4 -2 7 3 12 12 12 9 0 16 -7 16 -16z m-1531 -33 c29 -22 103 -86
166 -143 126 -113 124 -111 88 -196 l-18 -42 -37 31 c-27 21 -38 39 -38 57 0
34 -10 49 -35 53 -23 5 -124 136 -122 159 0 8 -16 39 -37 68 -21 28 -34 52
-29 52 5 0 33 -18 62 -39z m1665 14 c3 -8 1 -15 -4 -15 -6 0 -10 7 -10 15 0 8
2 15 4 15 2 0 6 -7 10 -15z m476 8 c0 -4 -15 -23 -32 -42 -31 -33 -31 -34 -6
-18 15 9 29 17 31 17 2 0 -6 -20 -17 -44 l-21 -45 -15 42 c-23 62 -69 62 -70
0 0 -31 -16 -29 -22 2 -3 16 1 30 13 41 10 9 21 25 24 35 5 16 16 19 61 19 30
0 54 -3 54 -7z m-665 -12 c5 -9 -35 -44 -43 -37 -5 6 21 46 30 46 4 0 9 -4 13
-9z m-105 -42 c6 -10 7 -19 2 -19 -5 0 -14 12 -20 26 -14 29 2 24 18 -7z m289
-55 c-21 -25 -29 -15 -29 39 l1 52 20 -38 c16 -30 18 -42 8 -53z m-870 50 c7
-6 -61 -64 -76 -64 -9 0 -13 14 -13 41 l0 42 42 -7 c23 -4 44 -9 47 -12z
m-1189 -20 c0 -8 -4 -12 -10 -9 -5 3 -10 13 -10 21 0 8 5 12 10 9 6 -3 10 -13
10 -21z m950 -49 l-11 -29 -19 30 c-27 39 -25 51 8 62 24 8 27 6 30 -13 2 -11
-2 -34 -8 -50z m517 59 c3 -8 0 -27 -7 -42 l-13 -27 -8 25 c-12 41 -10 60 6
60 9 0 18 -7 22 -16z m-418 -76 c-1 -62 -1 -62 -14 -33 -16 33 -18 55 -9 79
13 35 24 13 23 -46z m242 -16 l28 -62 -29 0 c-15 0 -35 -2 -42 -5 -22 -9 -51
60 -37 88 33 63 44 60 80 -21z m269 17 c0 -11 -40 -32 -47 -26 -3 3 -2 20 2
37 7 30 8 31 26 14 10 -9 19 -21 19 -25z m640 26 c-7 -9 -15 -13 -19 -10 -3 3
1 10 9 15 21 14 24 12 10 -5z m-1380 -25 c0 -16 -4 -30 -10 -30 -5 0 -10 14
-10 30 0 17 5 30 10 30 6 0 10 -13 10 -30z m1107 -16 c-7 -63 -20 -73 -45 -32
l-21 33 27 22 c39 32 45 29 39 -23z m-1503 -44 c42 -51 74 -80 86 -80 12 0 20
-7 20 -16 0 -19 3 -21 -97 46 -80 52 -83 56 -83 92 0 21 2 38 4 38 2 0 34 -36
70 -80z m489 -19 c-6 -25 -7 -25 -38 -5 -13 8 -22 21 -20 27 2 7 6 25 10 41
l6 29 24 -35 c15 -22 22 -43 18 -57z m-133 64 c0 -8 -4 -15 -10 -15 -5 0 -7 7
-4 15 4 8 8 15 10 15 2 0 4 -7 4 -15z m256 -152 c-6 -7 -56 81 -56 99 0 37 16
23 37 -33 13 -34 21 -64 19 -66z m816 80 c13 -21 23 -54 23 -73 0 -26 6 -37
24 -46 15 -8 39 -47 72 -118 56 -121 60 -138 23 -81 -44 67 -49 64 -10 -6 20
-36 36 -69 36 -72 0 -4 -15 -7 -34 -7 -42 0 -50 -18 -48 -105 2 -53 -10 -98
-21 -85 -10 12 -47 230 -47 276 0 28 -7 66 -16 84 -11 20 -18 64 -20 119 -1
47 -7 98 -13 112 -8 23 -6 39 5 39 1 0 13 -17 26 -37z m48 -18 c0 -11 -14 7
-31 40 -7 13 -3 12 10 -5 11 -14 21 -29 21 -35z m340 23 c-1 -28 -2 -30 -11
-15 -6 10 -8 25 -5 33 9 24 16 16 16 -18z m-603 -31 c-6 -20 -27 -19 -27 2 0
14 5 19 15 14 9 -3 14 -10 12 -16z m-47 -8 c0 -11 -5 -29 -10 -40 -8 -15 -15
-17 -29 -9 -10 5 -21 6 -25 3 -15 -16 -4 17 15 41 25 31 49 34 49 5z m-846 -5
c3 -8 2 -12 -4 -9 -6 3 -10 10 -10 16 0 14 7 11 14 -7z m611 -31 c22 -40 25
-55 20 -92 -14 -93 -18 -93 -68 8 -50 98 -55 116 -34 124 37 15 56 6 82 -40z
m-352 -26 c21 -34 45 -73 54 -87 13 -21 11 -20 -13 5 -75 78 -103 115 -98 130
10 24 17 18 57 -48z m-296 -43 c-36 -73 -46 -63 -16 15 15 39 27 57 33 51 7
-7 0 -30 -17 -66z m141 60 c21 -15 21 -16 5 -47 -9 -18 -17 -27 -19 -22 -26
91 -25 96 14 69z m1142 -5 c0 -5 -4 -9 -10 -9 -5 0 -10 7 -10 16 0 8 5 12 10
9 6 -3 10 -10 10 -16z m-1240 -88 c-6 -39 -14 -71 -17 -71 -11 0 -43 22 -43
30 0 11 64 119 69 115 1 -2 -2 -35 -9 -74z m934 9 c-19 -53 -34 -57 -34 -8 0
19 9 41 22 55 30 32 34 14 12 -47z m-144 33 c0 -5 -4 -15 -10 -23 -11 -18 -25
-7 -17 15 6 15 27 21 27 8z m-281 -98 c27 -44 47 -83 44 -87 -8 -15 -58 -8
-90 12 -35 21 -38 32 -27 114 4 26 11 45 16 44 5 -2 30 -39 57 -83z m507 -5
l25 -73 -27 -79 c-15 -45 -30 -75 -36 -72 -19 12 -88 168 -88 199 0 26 4 31
23 31 17 -1 27 9 42 41 10 24 23 39 28 34 4 -4 19 -41 33 -81z m-362 46 c-3
-15 -8 -25 -11 -23 -2 3 -1 17 3 31 3 15 8 25 11 23 2 -3 1 -17 -3 -31z m-818
-8 c16 -12 30 -23 32 -24 1 -1 -6 -25 -18 -53 -23 -60 -25 -71 -7 -71 6 0 24
21 39 45 l27 45 36 -21 c30 -18 35 -26 35 -57 0 -25 -8 -47 -25 -67 l-26 -30
16 39 c22 56 20 76 -9 76 -20 0 -42 -23 -112 -122 -48 -67 -89 -117 -91 -112
-2 6 10 90 27 188 16 97 30 179 30 181 0 11 19 4 46 -17z m571 -40 c-2 -13 -4
-5 -4 17 -1 22 1 32 4 23 2 -10 2 -28 0 -40z m309 -3 c-29 -38 -43 -46 -26
-16 5 11 15 32 20 47 8 20 14 24 22 16 8 -8 4 -20 -16 -47z m-582 -37 c-8 -29
-16 -57 -18 -63 -2 -5 -5 10 -7 33 -3 27 0 51 9 63 24 35 31 20 16 -33z m-69
-206 c-26 -76 -42 -84 -51 -27 -10 72 0 137 27 174 l24 33 9 -64 c7 -51 5 -73
-9 -116z m569 133 c-6 -16 -24 -21 -24 -7 0 11 11 22 21 22 5 0 6 -7 3 -15z
m1476 -37 c0 -33 -74 -438 -80 -438 -3 0 -15 42 -27 93 -13 50 -39 134 -58
186 -19 52 -34 95 -33 96 8 7 88 45 94 45 4 0 -1 -10 -12 -22 -10 -13 -3 -9
16 9 31 28 70 50 93 52 4 1 7 -9 7 -21z m-1046 -65 c-4 -43 -8 -79 -9 -81 -1
-1 -12 6 -25 16 l-23 19 24 61 c13 34 27 62 32 62 4 0 5 -35 1 -77z m-126 -9
l33 -44 -28 -52 c-46 -83 -61 -62 -61 87 -1 73 1 87 11 71 7 -10 27 -38 45
-62z m309 -16 c-3 -8 -6 -5 -6 6 -1 11 2 17 5 13 3 -3 4 -12 1 -19z m-2407
-64 c0 -14 -12 -19 -23 -8 -9 9 4 35 14 28 5 -3 9 -12 9 -20z m1253 -56 c3
-40 5 -73 4 -74 -1 -1 -16 10 -34 25 l-31 26 20 48 c11 26 24 47 28 47 4 0 10
-32 13 -72z m1031 -15 c11 -42 11 -54 -1 -76 -7 -15 -16 -27 -18 -27 -3 0 -5
37 -5 82 0 45 3 79 6 76 3 -3 11 -28 18 -55z m91 -84 c10 -95 -8 -114 -25 -26
-12 63 -7 113 10 102 4 -3 11 -37 15 -76z m835 -226 c-10 -16 -11 -15 -6 7 3
14 6 34 7 45 1 13 3 11 6 -7 2 -15 -1 -35 -7 -45z m-532 -13 c18 -45 42 -156
42 -194 0 -29 -16 18 -45 134 -35 137 -34 155 3 60z m497 -196 c-28 -140 -79
-347 -94 -385 l-10 -24 0 25 c-1 14 17 95 38 180 22 85 47 191 56 235 20 96
24 109 31 103 3 -3 -7 -64 -21 -134z"/>
<path d="M10775 12393 c-66 -91 -146 -196 -177 -234 -34 -40 -53 -71 -47 -75
16 -9 52 29 145 152 77 103 209 312 202 320 -2 1 -57 -72 -123 -163z"/>
<path d="M11020 12367 c-47 -61 -118 -151 -157 -199 -43 -52 -68 -90 -62 -94
12 -7 36 19 133 141 65 82 181 254 175 259 -2 2 -42 -46 -89 -107z"/>
<path d="M11005 12122 c-10 -20 -33 -82 -50 -136 -30 -91 -36 -101 -72 -123
-54 -33 -70 -29 -39 8 31 36 60 89 49 89 -4 0 -28 -18 -54 -40 -26 -22 -50
-40 -53 -40 -3 0 9 32 25 71 43 101 28 110 -55 33 -35 -32 -64 -67 -65 -76 -1
-25 12 -22 50 9 18 15 30 23 28 17 -2 -5 -13 -30 -23 -55 l-20 -46 -49 5 c-81
8 -53 -19 40 -39 142 -31 310 -123 395 -217 19 -22 45 -65 57 -97 23 -62 22
-85 -2 -38 -22 42 -95 122 -128 138 -59 31 -53 14 24 -66 34 -35 77 -90 95
-120 65 -111 122 -323 182 -684 25 -149 38 -202 60 -245 16 -30 38 -89 49
-130 31 -115 72 -460 54 -460 -5 0 -14 -102 -21 -227 -7 -126 -21 -322 -32
-438 -24 -252 -24 -287 0 -175 27 125 48 281 67 495 24 279 26 355 14 510 -18
227 -60 394 -120 469 -24 30 -29 47 -35 121 -6 81 -29 256 -42 314 -5 21 -3
23 5 11 9 -12 10 -8 5 15 -20 99 -59 231 -90 305 -20 47 -44 121 -53 165 -18
83 -60 186 -88 217 -9 10 -23 16 -32 14 -9 -3 -33 10 -54 28 l-39 32 27 39
c37 55 38 55 30 2 -7 -44 -6 -49 11 -45 15 3 21 23 36 118 9 63 19 156 22 205
l5 90 -16 -65 c-15 -60 -20 -69 -75 -113 -33 -27 -62 -47 -64 -44 -3 3 11 56
30 118 20 62 35 114 33 116 -2 1 -12 -14 -22 -35z m66 -186 c-8 -41 -92 -186
-108 -186 -2 0 -12 4 -22 10 -14 7 -17 17 -12 46 5 28 22 54 76 108 39 39 71
71 73 70 1 0 -2 -22 -7 -48z m-161 -131 c0 -28 -13 -31 -49 -11 l-24 13 29 11
c42 15 44 15 44 -13z"/>
<path d="M1640 11833 c1 -27 245 -273 272 -273 19 0 5 20 -39 56 -26 22 -89
81 -140 132 -51 51 -93 89 -93 85z"/>
<path d="M2018 11740 c99 -145 128 -178 143 -163 8 9 -6 33 -64 105 -41 51
-91 109 -112 128 -33 30 -28 20 33 -70z"/>
<path d="M10345 11541 c-121 -44 -300 -148 -378 -221 -24 -22 -52 -57 -61 -78
-10 -21 -30 -46 -44 -55 -15 -9 -74 -64 -132 -123 -58 -59 -90 -96 -71 -84
l35 24 -43 -56 c-23 -31 -90 -98 -148 -148 -57 -51 -102 -94 -99 -97 3 -3 32
18 66 47 33 28 60 49 60 46 0 -4 -42 -61 -93 -129 -200 -263 -179 -251 45 24
181 223 145 193 593 512 310 222 344 251 115 101 -105 -68 -333 -230 -470
-333 -33 -25 -32 -23 15 38 72 93 102 122 275 259 85 68 172 139 193 157 20
19 72 53 115 75 42 21 84 44 92 49 25 17 -7 13 -65 -8z m-260 -170 c-23 -21
-131 -108 -145 -116 -35 -21 16 28 79 75 60 45 90 64 66 41z"/>
<path d="M10565 11460 c-4 -7 -3 -16 1 -20 22 -21 294 -82 352 -80 23 1 -43
24 -169 59 -79 22 -151 43 -160 46 -10 4 -20 1 -24 -5z"/>
<path d="M10810 11313 c0 -14 27 -28 125 -63 69 -25 125 -48 125 -51 0 -3 -36
-13 -79 -23 -82 -17 -105 -32 -99 -63 5 -26 62 -42 153 -42 99 0 84 13 -43 38
-77 15 -84 19 -65 29 12 7 47 19 79 27 32 8 64 21 72 29 12 11 9 16 -15 33
-15 11 -68 36 -118 55 -132 52 -135 53 -135 31z"/>
<path d="M1805 11144 c27 -21 98 -52 150 -65 l42 -11 -23 -25 c-22 -24 -25
-25 -74 -13 -67 16 -72 8 -11 -14 48 -17 49 -18 38 -44 -7 -15 -26 -52 -44
-82 -32 -57 -64 -149 -62 -184 0 -12 9 3 19 31 10 29 26 63 35 75 16 22 17 20
11 -47 -14 -168 -19 -512 -7 -519 7 -5 11 6 12 36 1 24 5 57 9 73 l8 30 1 -31
c8 -216 65 -709 103 -904 29 -144 34 -159 38 -120 5 41 7 35 24 -65 23 -139
36 -172 30 -80 l-4 70 20 -60 c10 -33 51 -184 90 -335 60 -229 113 -412 136
-466 3 -6 -4 -14 -15 -17 -20 -5 -20 -6 3 -73 13 -38 34 -90 47 -116 l23 -48
-27 -27 c-80 -84 -117 -292 -83 -466 8 -40 17 -104 20 -143 7 -91 56 -283 113
-449 24 -71 45 -134 46 -139 1 -5 -14 -10 -33 -10 -138 -6 -145 -7 -123 -16
11 -5 58 -14 102 -21 45 -7 81 -17 81 -23 0 -6 4 -5 9 3 15 23 48 -4 64 -53 8
-24 13 -47 9 -50 -3 -3 -39 -7 -81 -7 -69 -1 -158 -15 -121 -18 8 -1 58 -6
110 -11 66 -6 97 -6 101 2 4 6 12 -23 19 -63 7 -41 17 -78 23 -84 14 -15 1
148 -18 217 -11 40 -12 64 -6 82 9 21 7 26 -10 31 -13 4 -31 29 -46 63 -14 32
-49 98 -78 147 -43 72 -60 115 -85 209 -35 135 -49 259 -31 270 20 13 11 28
-13 24 -32 -6 -36 5 -36 95 0 143 42 318 91 376 l20 24 43 -49 c24 -27 58 -58
77 -68 l32 -19 -46 64 c-67 91 -109 163 -145 251 -36 86 -41 112 -11 56 26
-50 32 -48 13 5 -16 43 -75 285 -114 462 -43 194 -99 383 -155 520 -26 64 -36
110 -49 225 -10 80 -28 215 -41 300 -34 221 -39 270 -28 270 6 0 16 -28 23
-62 7 -35 17 -70 22 -78 7 -12 8 -10 4 5 -2 11 -7 52 -11 90 -4 39 -25 162
-47 275 -47 243 -59 400 -35 450 17 33 14 56 -4 44 -13 -8 -1 62 16 96 26 51
105 110 147 110 18 0 28 5 28 15 0 19 -41 29 -86 22 -18 -3 -34 -2 -34 3 0 5
-14 19 -32 31 -17 13 -28 18 -24 11 10 -16 -3 -15 -86 8 -86 24 -100 25 -73 4z
m169 -887 c16 -71 14 -107 -5 -107 -5 0 -9 24 -9 53 0 28 -3 69 -6 90 -11 65
3 40 20 -36z m527 -3282 c34 -75 34 -77 12 -73 -11 2 -22 24 -34 71 -9 37 -15
67 -12 67 2 0 17 -29 34 -65z"/>
<path d="M11005 10869 c-76 -77 -99 -106 -76 -93 56 31 208 181 196 193 -8 7
-44 -23 -120 -100z"/>
<path d="M9865 10839 c-77 -55 -193 -139 -259 -187 -65 -48 -128 -94 -139
-102 -12 -8 4 19 34 60 118 161 154 220 132 220 -5 0 -62 -76 -128 -168 -86
-119 -160 -208 -260 -312 -131 -134 -218 -240 -198 -240 5 0 25 21 45 48 20
26 69 79 109 117 l72 70 -53 -75 c-86 -122 -215 -321 -244 -375 -32 -58 -35
-63 157 207 81 114 150 208 152 208 13 0 -140 -270 -195 -345 -117 -158 -239
-348 -311 -483 -16 -31 -40 -71 -53 -89 -30 -42 -126 -405 -140 -532 l-5 -46
10 40 c95 362 162 548 260 718 54 94 170 277 175 277 2 0 -16 -37 -40 -82 -45
-83 -98 -201 -111 -248 -3 -14 27 40 67 120 68 132 148 273 148 260 0 -3 -20
-63 -45 -134 -87 -246 -151 -548 -180 -840 -9 -93 3 -61 35 90 87 420 217 828
346 1084 40 81 74 129 144 208 94 105 105 134 23 60 l-47 -43 56 81 c31 44 56
89 55 100 -2 13 51 58 188 161 273 205 360 273 349 272 -5 0 -72 -45 -149
-100z"/>
<path d="M2554 10889 c-4 -6 6 -22 23 -35 43 -33 135 -143 102 -122 -127 81
-243 148 -252 145 -6 -2 7 -16 29 -31 42 -30 270 -180 317 -209 34 -21 194
-141 327 -245 129 -101 137 -106 55 -28 -91 87 -208 181 -320 259 -49 34 -100
73 -112 87 -46 50 -112 135 -108 139 8 8 213 -99 300 -156 199 -131 270 -202
462 -458 85 -113 183 -257 183 -269 0 -3 -42 22 -92 55 -152 98 -750 391 -766
375 -2 -3 42 -26 99 -53 309 -142 575 -283 774 -410 83 -53 99 -54 28 -1 -11
7 -37 45 -58 83 -95 171 -203 323 -371 520 -121 142 -189 211 -198 197 -3 -5
1 -15 10 -23 8 -7 19 -20 25 -30 5 -10 -27 6 -73 37 -87 59 -333 184 -361 184
-9 0 -19 -5 -23 -11z"/>
<path d="M11048 10695 c-76 -139 -89 -175 -46 -120 38 48 50 61 43 47 -4 -8
20 8 54 34 34 26 64 44 68 40 7 -7 -16 -79 -66 -206 l-22 -55 26 30 c43 52 98
172 99 218 1 64 -29 63 -99 -4 -57 -53 -69 -57 -36 -11 36 52 62 114 59 140
-2 22 -17 1 -80 -113z"/>
<path d="M2000 10603 c0 -5 23 -23 50 -41 27 -19 88 -70 137 -115 48 -45 78
-68 66 -51 -54 76 -254 240 -253 207z"/>
<path d="M11223 10499 c-28 -36 -158 -318 -149 -326 6 -7 168 317 164 329 -2
6 -8 5 -15 -3z"/>
<path d="M10803 10358 c3 -40 24 -138 47 -218 88 -309 101 -430 55 -529 -35
-74 -67 -113 -240 -291 -158 -162 -232 -247 -285 -327 -27 -41 -19 -34 56 42
49 50 160 158 247 240 174 164 246 251 278 335 18 46 20 71 17 155 -4 84 -14
134 -66 315 -33 118 -66 245 -72 283 -9 49 -16 67 -27 67 -13 0 -15 -11 -10
-72z"/>
<path d="M2074 10281 c13 -21 286 -171 286 -157 0 5 -275 166 -284 166 -4 0
-5 -4 -2 -9z"/>
<path d="M11236 10275 c-3 -9 -6 -28 -6 -42 0 -13 -25 -90 -55 -171 -31 -80
-54 -150 -52 -156 6 -19 127 238 139 297 11 49 10 59 -4 73 -14 14 -16 14 -22
-1z"/>
<path d="M11325 9908 c0 -111 -6 -176 -19 -238 -10 -47 -18 -102 -17 -122 1
-34 -32 -218 -45 -253 -4 -8 -4 -15 0 -15 7 0 62 180 75 250 25 126 48 336 40
358 -5 13 -9 43 -9 66 0 51 -10 106 -19 106 -3 0 -6 -69 -6 -152z"/>
<path d="M11269 10013 c-91 -233 -121 -335 -70 -235 25 49 101 239 101 252 0
21 -21 9 -31 -17z"/>
<path d="M2154 9921 c4 -5 28 -12 55 -16 27 -4 100 -19 162 -35 62 -16 115
-27 117 -25 6 6 -90 34 -203 60 -121 27 -139 29 -131 16z"/>
<path d="M2206 9611 c-5 -8 324 -105 331 -97 5 5 -139 53 -257 85 -38 11 -72
16 -74 12z"/>
<path d="M11399 9428 c-30 -79 -53 -149 -52 -157 1 -8 -16 -58 -37 -113 -21
-54 -37 -98 -34 -98 5 0 59 108 105 210 24 54 34 87 27 91 -7 4 -1 30 17 74
25 65 43 135 33 135 -3 0 -29 -64 -59 -142z"/>
<path d="M2234 9273 c3 -4 56 -17 116 -29 90 -18 172 -41 350 -100 8 -3 4 2
-10 10 -40 25 -234 84 -347 106 -117 22 -119 23 -109 13z"/>
<path d="M4970 9226 c0 -4 11 -23 24 -44 13 -20 35 -61 50 -90 14 -28 32 -52
39 -52 8 0 9 3 1 8 -6 4 -19 30 -28 59 -19 57 -54 114 -73 121 -7 2 -13 1 -13
-2z"/>
<path d="M8786 9075 c-9 -46 -41 -155 -71 -242 -30 -86 -55 -160 -55 -165 0
-12 28 -10 36 4 5 7 3 8 -6 3 -9 -6 -12 -4 -8 6 4 8 27 61 52 119 78 182 119
360 83 360 -9 0 -20 -29 -31 -85z"/>
<path d="M9021 9082 c-17 -26 -43 -63 -57 -82 -21 -28 -18 -26 15 9 22 24 41
37 41 30 0 -8 -24 -95 -54 -194 -30 -99 -57 -202 -60 -230 -13 -99 153 350
170 461 9 62 -16 65 -55 6z"/>
<path d="M11379 9043 c-12 -38 -42 -115 -65 -172 -24 -58 -42 -107 -40 -109 7
-7 77 117 107 190 33 80 48 158 31 158 -6 0 -20 -30 -33 -67z"/>
<path d="M9278 9003 c-55 -59 -116 -217 -158 -404 -27 -120 -24 -143 5 -39 48
175 132 377 176 425 10 12 15 26 10 33 -5 9 -14 4 -33 -15z"/>
<path d="M11457 8933 c-7 -15 22 -208 47 -306 24 -92 92 -255 102 -244 3 3 -9
52 -25 110 -35 119 -66 263 -76 352 -4 33 -9 68 -11 78 -5 17 -29 24 -37 10z"/>
<path d="M9694 8849 c-31 -30 -93 -99 -138 -154 -141 -172 -173 -229 -44 -77
41 48 114 129 163 180 96 102 110 136 19 51z"/>
<path d="M2490 8846 c0 -7 132 -48 137 -42 3 2 -20 11 -51 20 -30 9 -62 19
-71 22 -8 3 -15 4 -15 0z"/>
<path d="M3126 8790 c5 -5 99 -43 209 -83 254 -94 423 -164 704 -293 124 -57
226 -102 228 -101 1 2 -109 58 -245 125 -309 151 -586 267 -812 338 -83 26
-99 29 -84 14z"/>
<path d="M2680 8782 c8 -5 26 -13 40 -16 17 -5 20 -4 10 2 -8 5 -26 13 -40 16
-17 5 -20 4 -10 -2z"/>
<path d="M10270 8545 c-368 -18 -590 -22 -583 -12 5 8 -157 -1 -166 -9 -2 -2
-1 -11 3 -20 6 -15 26 -16 244 -10 388 11 837 40 892 57 35 10 -72 9 -390 -6z"/>
<path d="M3110 8542 c0 -4 60 -25 133 -46 72 -22 247 -79 386 -127 140 -49
257 -87 259 -85 8 9 -441 173 -633 231 -119 36 -145 41 -145 27z"/>
<path d="M9728 8543 c6 -2 18 -2 25 0 6 3 1 5 -13 5 -14 0 -19 -2 -12 -5z"/>
<path d="M8879 8503 c-1 -4 -1 -47 1 -95 3 -136 1 -141 -83 -176 -115 -48
-150 -55 -164 -35 -7 9 -13 12 -13 6 0 -6 6 -16 14 -22 14 -12 100 10 193 50
l46 19 -7 -81 c-9 -100 -9 -99 -49 -127 -37 -26 -169 -149 -147 -136 8 4 52
37 98 72 50 39 82 58 82 49 0 -8 -9 -82 -20 -163 -22 -169 -24 -207 -5 -119
l14 60 -5 -75 c-3 -41 -7 -88 -10 -105 -11 -67 17 6 33 87 13 63 18 77 23 58
4 -14 10 31 14 101 4 69 11 141 16 160 l8 34 1 -32 c2 -48 19 -49 23 -1 l3 42
98 34 c54 19 100 33 102 30 3 -2 -11 -33 -29 -69 -46 -87 -50 -104 -30 -124
19 -18 76 -15 192 11 90 20 144 18 175 -6 34 -27 39 -25 35 12 l-3 32 140 48
c182 61 285 82 389 76 89 -5 169 -33 198 -71 15 -19 18 -19 18 -4 0 49 -99 97
-215 105 -132 8 -289 -33 -484 -126 -52 -25 -69 -29 -85 -20 -29 16 -171 3
-240 -21 -65 -23 -106 -27 -106 -10 0 15 19 48 60 104 20 28 40 58 43 68 7 20
-24 57 -48 57 -31 0 -125 -42 -167 -75 -41 -34 -65 -45 -54 -26 4 5 61 46 129
92 145 97 132 88 124 95 -7 8 -78 -33 -171 -98 -38 -26 -73 -48 -78 -48 -5 0
-8 30 -6 67 l3 66 107 38 c144 51 262 75 295 60 32 -15 45 -4 19 15 -41 30
-171 6 -347 -65 -41 -16 -75 -28 -77 -26 -1 1 -8 49 -15 105 -7 65 -17 105
-24 108 -7 2 -14 0 -14 -5z m-9 -560 c-9 -15 -10 -12 -6 16 3 18 7 43 8 55 1
11 3 4 5 -16 2 -21 -1 -46 -7 -55z"/>
<path d="M9791 8464 c-85 -8 -157 -16 -159 -19 -15 -15 21 -16 158 -6 364 27
651 6 821 -58 67 -26 62 -16 -7 15 -180 80 -441 101 -813 68z"/>
<path d="M2720 8401 c80 -27 180 -63 224 -80 43 -18 81 -30 83 -27 9 9 -403
157 -436 155 -9 0 49 -22 129 -48z"/>
<path d="M11021 8428 c-18 -12 -50 -24 -70 -27 -36 -6 -36 -6 -41 -66 -6 -62
-30 -125 -174 -454 -42 -96 -74 -176 -73 -178 5 -4 123 244 190 399 28 65 52
116 55 114 6 -7 -17 -182 -39 -296 -27 -136 -93 -370 -124 -439 -34 -73 -31
-75 11 -12 50 74 97 179 144 319 63 187 82 289 87 452 l4 145 37 32 c43 38 41
41 -7 11z"/>
<path d="M11566 8213 c-10 -167 -29 -289 -70 -438 -19 -71 -34 -131 -32 -132
8 -9 86 183 105 256 22 89 49 385 38 414 -3 9 -13 17 -20 17 -11 0 -16 -26
-21 -117z"/>
<path d="M10205 8249 c-157 -11 -215 -19 -215 -30 0 -6 20 -7 48 -4 26 3 112
12 191 20 80 9 147 18 150 20 5 6 -26 5 -174 -6z"/>
<path d="M3437 8229 c-210 -15 -230 -29 -32 -21 393 15 606 4 840 -43 66 -14
131 -27 145 -30 14 -3 -2 4 -35 16 -221 74 -562 103 -918 78z"/>
<path d="M9492 8211 c-59 -20 -162 -88 -232 -152 -42 -38 -40 -37 37 15 98 67
208 126 233 126 20 0 35 16 22 24 -4 2 -31 -4 -60 -13z"/>
<path d="M11506 8178 c-3 -13 -12 -59 -21 -103 -8 -44 -29 -128 -45 -187 -32
-116 -35 -131 -20 -108 28 44 110 335 110 393 0 33 -18 36 -24 5z"/>
<path d="M2811 8185 c3 -2 65 -20 139 -39 74 -19 144 -37 155 -41 18 -6 18 -5
3 5 -10 6 -77 26 -150 45 -131 34 -156 39 -147 30z"/>
<path d="M3895 8005 c-213 -32 -220 -34 -85 -28 152 7 272 25 278 41 5 15 2
15 -193 -13z"/>
<path d="M4485 8008 c-129 -12 -171 -23 -190 -52 -14 -22 -14 -30 0 -91 8 -36
15 -78 15 -92 0 -24 -1 -25 -18 -10 -68 62 -205 63 -322 2 -37 -20 -87 -75
-104 -117 -20 -47 -20 -78 -1 -152 9 -33 14 -60 12 -62 -2 -2 -32 10 -67 27
-85 40 -168 59 -262 59 -63 0 -78 -3 -78 -15 0 -11 12 -15 51 -15 64 0 231
-34 305 -61 31 -12 60 -17 64 -13 4 5 2 38 -5 74 -22 104 0 168 76 216 90 56
193 69 296 37 70 -22 73 -16 66 99 -6 87 -6 87 20 97 15 6 95 15 179 21 162
11 190 14 278 33 l55 12 -45 7 c-60 9 -202 7 -325 -4z"/>
<path d="M5739 7963 c-15 -54 -18 -198 -6 -257 5 -21 10 -36 12 -34 3 2 11 54
19 115 8 61 20 130 26 153 10 37 9 44 -7 56 -27 20 -29 18 -44 -33z"/>
<path d="M5560 7932 c0 -6 15 -46 33 -89 39 -89 88 -234 117 -343 l20 -75 -6
60 c-3 33 -16 101 -29 150 -27 103 -105 297 -123 303 -7 2 -12 -1 -12 -6z"/>
<path d="M9148 7893 c-29 -35 -66 -110 -117 -236 -28 -71 -51 -132 -51 -135 0
-4 41 69 90 162 50 94 97 178 106 187 9 10 13 23 9 28 -9 16 -20 14 -37 -6z"/>
<path d="M2508 7708 c1 -101 7 -228 13 -283 11 -99 46 -228 75 -275 l15 -25
-6 25 c-28 116 -35 180 -40 375 -3 121 -8 253 -11 293 -5 66 -8 72 -27 72 -22
0 -22 -1 -19 -182z"/>
<path d="M10411 7858 c-29 -11 -172 -80 -317 -154 -146 -74 -267 -134 -270
-134 -3 0 19 29 50 64 60 68 67 89 35 106 -25 14 -46 10 -236 -50 -114 -36
-153 -44 -153 -34 0 21 -16 17 -37 -10 -15 -20 -155 -76 -248 -100 -27 -7 101
1 145 9 l35 7 -50 -48 c-27 -26 -130 -124 -227 -216 -98 -92 -174 -168 -170
-168 4 0 82 61 175 135 92 74 167 132 167 129 0 -3 -24 -40 -54 -82 -40 -59
-165 -259 -233 -374 -2 -5 -2 -8 0 -8 3 0 96 129 206 288 111 158 218 305 238
328 36 38 49 44 213 93 96 29 183 57 193 62 9 5 17 7 17 4 0 -2 -29 -40 -64
-82 -141 -175 -185 -262 -140 -280 25 -9 140 32 276 99 68 33 150 71 183 83
37 14 61 30 63 40 6 29 -37 13 -263 -99 -115 -57 -220 -107 -233 -111 -34 -10
-40 20 -13 70 27 51 110 147 121 140 10 -6 148 51 370 152 284 130 324 141
374 102 42 -33 45 -11 4 27 -45 40 -77 43 -157 12z"/>
<path d="M10892 7678 c-7 -46 -22 -134 -33 -195 l-22 -113 -76 0 c-108 0 -211
-11 -211 -23 0 -9 192 -2 253 9 25 5 27 3 27 -28 -1 -18 -7 -62 -15 -98 -7
-36 -12 -67 -9 -69 14 -15 116 186 139 274 8 32 22 115 31 183 18 138 17 142
-42 142 l-31 0 -11 -82z"/>
<path d="M8716 7714 c-3 -9 -6 -33 -6 -54 0 -83 -60 -342 -129 -560 -22 -68
-39 -126 -37 -127 4 -5 99 235 130 327 31 95 66 263 73 358 5 60 3 72 -9 72
-9 0 -19 -7 -22 -16z"/>
<path d="M8802 7660 c0 -14 2 -19 5 -12 2 6 2 18 0 25 -3 6 -5 1 -5 -13z"/>
<path d="M11424 7605 c-15 -38 4 -229 30 -305 21 -60 118 -271 166 -361 6 -12
0 -25 -25 -49 -32 -31 -33 -31 -40 -11 -3 12 -15 21 -26 21 -11 0 -19 7 -19
17 0 14 -2 14 -20 -2 -11 -10 -20 -26 -20 -37 0 -11 7 -18 20 -18 11 0 20 -3
20 -7 0 -22 -66 -111 -141 -191 -103 -109 -247 -294 -255 -329 -4 -16 0 -31
11 -43 24 -26 37 -25 65 5 43 45 40 26 -5 -44 -62 -96 -115 -209 -115 -246 0
-28 -6 -34 -62 -61 -34 -16 -87 -45 -118 -65 l-57 -36 -58 34 c-117 69 -300
133 -480 167 -166 32 -395 47 -395 26 0 -6 39 -10 98 -10 234 -1 480 -59 722
-172 117 -55 113 -43 34 -106 -22 -17 -14 -15 29 8 56 31 58 31 85 14 l27 -17
-19 21 -19 22 124 59 c120 57 213 91 251 91 12 0 18 -8 19 -22 1 -17 2 -19 6
-5 2 9 9 17 14 17 19 0 20 -30 5 -105 -34 -163 -13 -188 61 -72 64 101 67 102
59 30 -6 -55 -5 -63 10 -63 9 0 14 -6 11 -13 -5 -13 -31 -142 -41 -207 -8 -44
12 -75 40 -66 11 3 47 38 79 77 33 39 61 67 63 61 1 -5 -6 -45 -17 -88 -66
-259 -54 -342 37 -244 l37 40 2 -50 c0 -28 6 -56 12 -63 6 -8 8 -36 4 -69 l-6
-57 -42 57 c-90 122 -175 200 -175 161 0 -5 31 -47 69 -92 115 -137 151 -195
151 -241 0 -34 2 -38 13 -23 11 16 16 11 50 -45 42 -70 42 -48 0 57 -23 59
-23 63 -9 145 12 75 14 80 16 40 l3 -45 8 45 c4 25 8 93 8 152 1 59 6 119 12
135 7 19 7 29 0 31 -6 2 -11 33 -11 72 0 53 -4 69 -16 74 -25 10 -32 7 -54
-16 -11 -12 -20 -19 -20 -15 0 3 18 57 40 118 44 124 47 144 24 153 -32 12
-44 4 -89 -59 -26 -36 -48 -65 -51 -65 -3 0 77 172 137 293 33 67 34 69 15 83
-11 8 -25 14 -30 13 -6 0 -45 -45 -86 -99 -41 -54 -78 -99 -82 -99 -34 -3 118
264 223 390 37 44 38 47 20 63 -17 15 -21 12 -81 -56 -34 -40 -67 -75 -72 -77
-14 -5 149 257 190 306 l37 44 22 -68 c26 -77 28 -93 10 -93 -8 0 -23 -10 -35
-23 -57 -60 -91 -220 -98 -457 -2 -96 -6 -210 -8 -253 -2 -43 -2 -77 0 -74 8
8 24 122 44 322 23 223 47 340 85 415 27 53 45 58 46 12 0 -15 4 -36 8 -47 14
-36 22 41 11 114 -11 82 -48 187 -103 296 -57 115 -154 254 -185 266 -15 7
-141 356 -152 422 -5 34 -10 90 -10 123 0 42 -5 65 -15 74 -12 10 -16 9 -21
-5z m274 -777 c43 -66 96 -168 90 -172 -12 -9 -80 -46 -84 -46 -2 0 -4 7 -4
15 0 9 -7 18 -16 22 -11 4 -39 -16 -87 -63 -125 -121 -156 -148 -163 -142 -11
11 49 92 137 185 91 96 114 142 65 129 -18 -4 -25 -1 -29 14 -8 32 -36 23 -84
-27 -36 -39 -39 -40 -12 -8 63 77 134 155 140 155 4 0 25 -28 47 -62z m-242
-245 c-21 -42 -62 -77 -81 -69 -12 4 -38 -12 -83 -51 -73 -64 -72 -60 6 45 54
72 66 84 56 58 -3 -7 3 -21 13 -31 17 -17 19 -16 57 28 45 54 52 58 32 20z
m304 13 c0 -4 -255 -235 -300 -271 -13 -11 21 31 75 93 65 74 120 126 155 147
52 32 70 40 70 31z m-197 -243 c-71 -93 -185 -265 -196 -297 -16 -43 -13 -5 7
89 20 96 23 102 66 141 50 45 182 154 187 154 2 0 -27 -39 -64 -87z m-129 20
c-57 -77 -64 -85 -64 -77 0 13 27 53 58 87 36 39 39 34 6 -10z m-103 -74 c-22
-52 -46 -127 -54 -167 -9 -40 -21 -80 -29 -89 -9 -12 -9 -15 0 -9 6 4 12 2 12
-3 0 -6 -8 -11 -19 -11 -10 0 -34 -3 -52 -6 l-34 -5 43 39 c70 66 52 73 -27
11 -28 -22 -51 -35 -51 -28 0 45 228 384 246 366 3 -3 -13 -47 -35 -98z m271
-1 c-11 -18 -32 -55 -47 -83 -16 -27 -37 -60 -48 -72 -11 -13 -17 -23 -14 -23
4 0 -2 -19 -14 -42 -25 -49 -179 -308 -183 -308 -5 0 52 251 58 257 3 4 6 1 6
-5 0 -31 51 1 56 34 2 14 36 64 137 197 60 80 83 101 49 45z m-276 -185 c-12
-58 -27 -108 -34 -111 -17 -5 -15 13 14 113 25 86 32 105 38 105 2 0 -7 -48
-18 -107z m262 75 c-8 -13 -34 -56 -57 -95 -24 -40 -45 -73 -47 -73 -2 0 12
33 32 73 32 64 69 117 82 117 2 0 -2 -10 -10 -22z m-40 -335 c-51 -111 -98
-233 -98 -254 0 -9 7 -20 15 -23 14 -5 13 -10 -6 -35 -12 -17 -28 -32 -35 -35
-16 -6 -14 6 31 190 30 124 34 135 80 188 27 31 50 56 51 56 2 0 -16 -39 -38
-87z m86 -415 c-6 -19 -43 -75 -76 -112 -4 -6 -8 0 -8 12 0 12 9 30 21 40 11
9 29 32 40 50 24 37 33 41 23 10z"/>
<path d="M11469 6103 c-13 -16 -12 -17 4 -4 9 7 17 15 17 17 0 8 -8 3 -21 -13z"/>
<path d="M2716 7503 c23 -135 204 -342 372 -427 54 -28 46 -13 -19 34 -129 94
-275 274 -305 378 -12 40 -20 52 -35 52 -17 0 -19 -5 -13 -37z"/>
<path d="M6146 7489 c-17 -86 4 -552 25 -574 2 -2 3 132 3 298 -1 190 -5 302
-11 304 -6 2 -13 -10 -17 -28z"/>
<path d="M6593 7508 c3 -7 32 -74 65 -148 76 -172 153 -377 188 -502 15 -54
29 -96 31 -94 6 5 -26 149 -53 243 -52 179 -196 513 -222 513 -8 0 -12 -6 -9
-12z"/>
<path d="M9163 7483 c-31 -40 -83 -125 -66 -108 25 26 105 137 100 141 -2 3
-18 -12 -34 -33z"/>
<path d="M4881 7491 c-20 -36 -32 -157 -26 -251 3 -52 7 -96 9 -97 2 -2 6 50
9 114 6 112 18 197 32 236 9 23 -12 22 -24 -2z"/>
<path d="M4761 7335 c0 -5 18 -30 41 -55 22 -25 31 -31 20 -15 -37 52 -62 80
-61 70z"/>
<path d="M10145 7331 c17 -5 98 -9 180 -10 136 -1 199 -6 365 -27 74 -9 55 10
-25 26 -68 14 -567 24 -520 11z"/>
<path d="M8232 7158 c-87 -238 -150 -447 -165 -550 -5 -32 -3 -38 12 -38 15 0
20 11 25 51 7 51 23 108 136 488 33 112 59 206 56 208 -2 2 -31 -69 -64 -159z"/>
<path d="M9925 7313 c-86 -11 -384 -107 -372 -120 2 -2 33 6 68 16 127 40 276
71 362 78 48 3 87 9 87 13 0 17 -68 23 -145 13z"/>
<path d="M6571 7303 c2 -4 16 -31 32 -60 33 -64 113 -295 173 -503 50 -175 56
-192 48 -135 -22 163 -137 551 -192 650 -15 27 -35 51 -46 53 -10 2 -17 0 -15
-5z"/>
<path d="M3189 7284 c-21 -25 -15 -42 29 -81 l37 -33 -60 24 c-33 13 -89 36
-124 51 -64 26 -78 27 -68 3 6 -16 293 -131 307 -123 19 12 10 29 -37 77 -56
57 -56 57 102 28 137 -25 147 -25 115 0 -36 27 -145 61 -220 67 -55 5 -67 3
-81 -13z"/>
<path d="M11180 7185 l0 -95 -38 0 c-21 0 -61 -7 -89 -15 -50 -15 -278 -127
-298 -146 -10 -10 98 28 226 80 83 33 177 57 187 47 3 -4 5 -26 5 -49 -2 -39
-1 -40 7 -12 8 29 40 246 40 273 0 6 -9 12 -20 12 -19 0 -20 -7 -20 -95z"/>
<path d="M10159 7152 c-107 -53 -259 -138 -337 -187 -148 -93 -393 -272 -472
-345 -52 -48 -55 -51 160 102 249 177 513 335 762 456 54 26 98 53 98 60 0 6
-4 12 -9 12 -4 0 -95 -44 -202 -98z"/>
<path d="M6275 7153 c-6 -53 6 -321 21 -486 7 -76 24 -101 24 -36 0 68 15 33
34 -76 30 -174 113 -495 115 -447 1 8 -24 162 -54 344 -30 181 -55 341 -55
354 0 17 -8 27 -24 34 -23 8 -24 11 -31 189 -4 100 -11 181 -15 181 -4 0 -11
-26 -15 -57z"/>
<path d="M10625 7193 c-11 -2 -56 -11 -100 -19 -132 -24 -335 -76 -335 -85 0
-5 4 -9 9 -9 17 0 426 101 446 110 21 9 14 11 -20 3z"/>
<path d="M6957 7113 c-4 -6 13 -40 37 -76 51 -77 77 -141 117 -292 l30 -110
-5 78 c-8 103 -21 157 -66 252 -39 85 -102 166 -113 148z"/>
<path d="M8730 7007 c-58 -52 -200 -191 -317 -310 l-211 -217 58 112 c32 62
70 148 85 191 14 43 41 101 59 130 96 153 93 161 -7 22 -110 -154 -327 -529
-313 -542 11 -11 28 14 101 148 43 77 79 138 81 136 4 -4 -100 -234 -110 -245
-3 -3 -6 -11 -6 -19 0 -30 31 -8 111 80 46 50 167 178 269 282 282 290 315
325 310 325 -3 0 -52 -42 -110 -93z"/>
<path d="M9491 7016 c-20 -20 -61 -44 -104 -61 -110 -42 -378 -182 -512 -267
-193 -123 -438 -293 -443 -307 -7 -20 23 -2 213 129 261 180 459 295 685 396
l75 34 -50 -47 c-28 -27 -100 -95 -160 -152 -160 -151 13 -25 207 152 66 59
113 93 143 104 52 17 60 28 13 17 -28 -6 -31 -5 -20 8 11 14 7 28 -8 28 -3 0
-21 -15 -39 -34z"/>
<path d="M10488 6824 l-186 -135 -124 -12 c-72 -7 -122 -16 -120 -22 2 -5 9
-10 15 -9 7 0 53 4 102 8 83 7 88 6 70 -9 -14 -11 -8 -10 20 4 24 11 74 22
125 26 102 8 351 42 358 50 8 8 -25 6 -227 -14 -147 -13 -180 -14 -165 -4 11
8 77 54 148 102 151 105 207 150 186 150 -8 0 -99 -61 -202 -135z"/>
<path d="M10290 6856 c-75 -26 -84 -30 -208 -104 -51 -30 -91 -57 -88 -59 2
-2 68 25 147 60 170 76 206 88 278 96 30 3 56 12 59 19 7 21 -115 14 -188 -12z"/>
<path d="M8122 6618 c-39 -122 -70 -223 -68 -225 8 -9 132 239 164 328 30 84
33 102 21 110 -38 24 -44 13 -117 -213z"/>
<path d="M6447 6783 c-13 -13 -6 -21 61 -71 172 -128 267 -278 357 -562 l36
-115 -6 69 c-22 264 -159 504 -366 642 -71 47 -72 47 -82 37z"/>
<path d="M10992 6715 c-45 -24 -92 -51 -104 -60 -17 -11 -49 -15 -128 -15
-234 0 -714 -60 -747 -94 -16 -16 12 -16 84 -2 136 27 356 52 638 71 l90 6
-55 -51 -55 -50 70 47 70 48 110 5 110 5 -84 9 c-98 10 -97 12 32 77 42 22 77
41 77 44 0 13 -32 1 -108 -40z"/>
<path d="M4030 6700 c47 -5 126 -18 175 -29 92 -22 334 -98 347 -110 4 -3 -16
-19 -45 -34 -29 -15 -87 -54 -128 -87 -40 -33 -81 -58 -89 -55 -32 9 -260 45
-352 54 -188 21 -364 10 -398 -25 -13 -12 -8 -12 25 2 75 32 378 17 634 -32
83 -15 93 -20 71 -37 -8 -7 -49 -48 -90 -92 -41 -44 -61 -68 -45 -54 81 70
201 153 220 151 11 -1 69 -13 128 -27 59 -14 112 -25 119 -24 23 1 -35 20
-136 44 -54 14 -100 26 -102 27 -5 6 158 110 205 131 25 11 47 24 49 28 2 5
13 4 25 -2 22 -10 22 -10 2 5 -11 8 -25 19 -30 24 -6 5 -17 9 -25 10 -8 0 -80
23 -160 51 -172 59 -322 92 -417 90 l-68 -2 85 -7z"/>
<path d="M9669 6646 c-73 -62 -76 -63 -159 -75 -177 -25 -403 -92 -585 -174
-142 -63 -271 -137 -240 -137 3 0 58 26 123 59 212 106 406 174 603 212 141
27 153 24 92 -23 -51 -40 -158 -137 -133 -121 8 6 65 47 126 91 l112 82 98 1
c107 1 97 16 -11 18 l-60 1 64 58 c36 32 60 61 55 65 -5 3 -44 -23 -85 -57z"/>
<path d="M5305 6660 c-4 -6 11 -32 32 -58 83 -101 95 -122 79 -128 -23 -9 -20
-54 9 -159 31 -114 31 -117 -6 -72 -32 38 -56 47 -65 23 -5 -13 120 -272 151
-310 28 -36 30 -5 3 70 -20 58 -23 74 -12 74 19 0 18 18 -11 144 -14 60 -23
111 -21 113 2 2 17 -17 32 -42 36 -56 59 -60 51 -8 -13 77 -113 253 -192 336
-28 29 -40 33 -50 17z m190 -296 c38 -67 43 -102 7 -42 -21 35 -53 108 -47
108 2 0 20 -30 40 -66z"/>
<path d="M3190 6644 c-19 -7 -56 -13 -82 -13 -35 -1 -48 -5 -48 -15 0 -12 11
-13 56 -9 33 4 55 2 53 -3 -3 -5 -32 -65 -66 -134 -66 -133 -132 -317 -158
-438 -24 -116 -18 -138 14 -47 61 173 202 490 264 590 18 30 23 46 16 63 -5
12 -10 21 -11 21 -2 -1 -19 -7 -38 -15z"/>
<path d="M2694 6642 c-6 -4 -14 -29 -18 -56 -4 -27 -32 -119 -61 -205 -30 -85
-52 -157 -51 -159 9 -8 91 169 120 259 18 56 36 96 39 88 4 -8 4 4 0 26 -6 46
-13 57 -29 47z"/>
<path d="M2525 6568 c-161 -39 -194 -60 -54 -33 103 19 119 24 119 36 0 11
-11 10 -65 -3z"/>
<path d="M10040 6390 c0 -12 24 -17 115 -25 39 -3 173 -19 298 -36 224 -30
306 -34 197 -10 -139 30 -503 81 -582 81 -16 0 -28 -4 -28 -10z"/>
<path d="M9075 6360 c-124 -25 -314 -122 -834 -428 -8 -4 -11 -14 -7 -20 9
-14 87 24 275 137 115 68 136 77 146 64 9 -12 20 -13 69 -4 32 6 109 13 170
15 126 5 112 2 -94 -20 -195 -20 -220 -25 -220 -38 0 -6 -29 -24 -64 -39 -35
-16 -85 -48 -112 -71 -27 -24 -63 -50 -80 -59 -46 -23 -147 -137 -193 -216
-43 -72 -48 -87 -30 -76 5 4 -4 -22 -22 -56 -44 -88 -76 -175 -104 -288 -28
-110 -32 -154 -9 -106 14 28 14 23 9 -63 -8 -115 5 -315 16 -262 6 27 27 392
27 470 1 23 65 188 106 268 20 39 36 75 36 80 0 18 288 301 327 320 85 44 554
96 658 74 28 -6 69 -15 91 -20 46 -10 88 -36 148 -91 22 -21 36 -29 32 -18
-21 58 -17 55 77 -54 46 -53 80 -116 71 -130 -3 -6 -14 6 -24 28 -19 42 -56
80 -67 69 -4 -4 -2 -15 5 -24 47 -66 68 -191 57 -337 -4 -55 -9 -116 -10 -136
-3 -66 -119 -208 -277 -339 -65 -55 -114 -101 -109 -104 5 -3 33 12 62 34 58
44 58 43 77 31 9 -5 -18 -23 -85 -57 -54 -27 -100 -52 -104 -56 -8 -12 -241
-57 -329 -64 -60 -5 -80 -11 -80 -21 0 -11 -8 -13 -27 -9 -16 3 -53 8 -83 11
-97 12 -184 36 -235 64 -27 15 -55 26 -61 24 -17 -6 -132 151 -173 236 -30 63
-35 86 -35 143 0 73 -14 86 -29 27 -26 -101 78 -312 197 -397 25 -18 46 -30
46 -26 0 4 8 0 18 -8 56 -50 193 -88 316 -88 132 0 393 46 551 96 87 28 131
50 80 39 -22 -4 -8 9 55 51 47 31 117 89 155 128 58 58 76 86 103 151 18 44
36 86 39 93 3 8 0 10 -11 6 -19 -7 -21 9 -5 57 18 54 27 55 23 2 l-4 -48 17
40 c27 65 24 265 -6 385 -13 52 -28 103 -33 113 -20 39 1 25 66 -43 36 -39 66
-66 66 -61 0 5 -18 36 -41 70 -46 69 -113 132 -213 198 -92 61 -160 113 -147
113 22 0 148 -52 210 -87 35 -19 82 -54 105 -78 118 -120 378 -230 571 -240
48 -3 68 -1 50 3 -23 6 -10 9 60 15 50 4 117 13 150 21 l60 14 105 -53 c58
-30 114 -61 125 -69 19 -14 17 -15 -26 -16 -38 0 -48 -4 -52 -20 -5 -19 0 -20
66 -21 111 -2 132 -9 133 -44 1 -35 6 -38 154 -120 63 -34 115 -69 115 -77 0
-8 28 -48 61 -89 33 -42 87 -117 119 -168 32 -50 60 -90 62 -88 5 6 -21 77
-50 133 -14 27 -51 83 -83 124 -31 41 -51 70 -43 64 21 -16 59 -24 59 -12 0
20 -79 84 -165 134 -48 27 -96 56 -108 65 -20 16 -19 17 40 24 88 10 198 38
195 50 -4 18 -53 25 -213 33 -141 8 -159 11 -189 32 -18 13 -82 49 -142 80
l-110 57 31 11 c45 16 38 21 -15 11 -40 -8 -52 -5 -104 21 -41 20 -61 26 -66
19 -7 -11 30 -47 51 -50 33 -4 -78 -20 -180 -25 -153 -9 -290 12 -408 62 -92
38 -144 72 -244 157 -79 68 -194 127 -308 158 -98 26 -323 36 -495 21 -63 -6
-117 -9 -119 -6 -8 7 284 143 374 173 87 30 82 39 -10 21z m2020 -790 c-89
-11 -163 -11 -170 0 -4 6 35 9 112 9 103 -2 110 -3 58 -9z m-1518 -124 c-5
-72 -19 -116 -36 -116 -5 0 0 30 10 67 11 37 19 80 19 95 0 16 3 28 6 28 4 0
4 -33 1 -74z m-198 -392 c-18 -20 -43 -40 -54 -45 -11 -6 2 11 30 36 59 54 72
59 24 9z"/>
<path d="M2475 6309 c-100 -43 -102 -46 -12 -23 69 18 117 40 117 54 0 14 -5
13 -105 -31z"/>
<path d="M7260 6246 c0 -40 -2 -95 -5 -122 -4 -40 -3 -44 4 -20 16 48 26 216
12 216 -7 0 -11 -25 -11 -74z"/>
<path d="M2752 6290 c0 -14 2 -19 5 -12 2 6 2 18 0 25 -3 6 -5 1 -5 -13z"/>
<path d="M2803 6265 c-17 -7 -35 -10 -39 -7 -4 4 -4 -1 -1 -11 4 -10 7 -20 7
-23 0 -2 20 6 45 18 67 33 57 53 -12 23z"/>
<path d="M9560 6270 c0 -5 3 -10 8 -10 75 0 633 -114 838 -170 95 -27 104 -24
19 6 -309 110 -865 221 -865 174z"/>
<path d="M10440 6251 c0 -4 58 -25 130 -45 71 -21 169 -50 217 -67 47 -16 88
-27 90 -25 11 11 -384 146 -426 146 -6 0 -11 -4 -11 -9z"/>
<path d="M2692 6200 c-53 -24 -125 -82 -154 -124 -25 -35 -22 -34 67 44 28 23
74 54 103 67 28 14 52 26 52 29 0 9 -27 3 -68 -16z"/>
<path d="M3945 6129 c-437 -39 -715 -83 -795 -124 -17 -9 -30 -18 -30 -21 0
-2 8 -1 18 4 72 37 317 77 711 117 134 13 246 27 249 30 7 6 -36 5 -153 -6z"/>
<path d="M2619 6033 c-6 -20 -27 -70 -46 -111 -18 -41 -32 -77 -29 -79 13 -13
106 172 106 212 0 28 -18 15 -31 -22z"/>
<path d="M6913 5963 c3 -21 15 -98 26 -171 21 -129 21 -136 4 -190 -9 -32 -20
-61 -25 -66 -4 -6 -8 42 -9 105 -1 147 -16 224 -44 224 -12 0 -21 -8 -23 -20
-2 -16 -1 -17 7 -5 5 8 12 12 15 9 3 -3 14 -84 23 -180 l18 -175 -23 -75 c-46
-147 -111 -373 -108 -377 6 -5 57 127 126 328 77 222 68 224 95 -24 9 -77 17
-142 20 -144 5 -5 -3 155 -15 318 -6 80 -6 140 0 165 14 60 13 138 -2 133 -7
-3 -15 -17 -18 -33 -3 -19 -12 14 -24 93 -14 95 -21 122 -33 122 -12 0 -14 -8
-10 -37z"/>
<path d="M7076 5945 c-3 -8 -8 -85 -10 -172 -7 -192 8 -155 18 46 7 134 5 160
-8 126z"/>
<path d="M6510 5911 c-5 -11 -9 -59 -9 -108 l2 -88 7 85 c4 47 12 95 19 108 7
13 8 22 2 22 -6 0 -15 -9 -21 -19z"/>
<path d="M6702 5846 c-6 -14 -18 -57 -26 -98 -21 -102 -88 -566 -84 -579 2 -6
21 83 42 198 36 197 81 431 93 481 7 30 -11 28 -25 -2z"/>
<path d="M2644 5848 c-3 -4 4 -8 15 -8 11 0 22 -4 25 -8 5 -8 -19 -79 -83
-251 -18 -46 -30 -89 -28 -95 6 -15 100 182 128 266 12 37 19 73 16 81 -6 16
-65 28 -73 15z"/>
<path d="M4835 5853 c-237 -31 -409 -113 -514 -244 -43 -54 -85 -136 -96 -184
-5 -22 2 -16 25 25 29 52 112 157 91 115 -6 -11 -22 -49 -36 -85 -78 -191 -89
-279 -57 -441 11 -57 24 -123 27 -146 4 -24 10 -45 15 -48 4 -3 6 4 3 15 -9
32 5 23 26 -18 23 -45 81 -116 118 -146 28 -22 25 -13 -13 39 -12 17 -27 41
-33 55 -10 21 -9 20 11 -5 103 -134 287 -274 486 -367 46 -22 86 -38 88 -35 3
3 -54 42 -125 87 -72 45 -131 83 -131 86 0 5 134 -68 140 -77 22 -32 186 -61
380 -68 161 -5 172 -7 140 -19 -73 -28 -77 -32 -25 -26 28 3 79 19 114 35 35
16 66 28 68 25 2 -2 -22 -35 -54 -72 -54 -64 -55 -67 -23 -47 19 12 90 80 158
152 117 125 123 129 116 93 -12 -62 -42 -141 -74 -193 -28 -46 -29 -64 -2 -37
7 7 12 8 12 2 0 -10 -28 -94 -46 -138 -5 -14 -4 -17 5 -12 35 22 144 320 157
430 8 71 20 79 28 21 15 -97 -53 -345 -94 -345 -14 0 -18 -12 -24 -61 -3 -34
-11 -68 -17 -75 -8 -10 -8 -14 -1 -14 15 0 2 -41 -38 -120 -27 -54 -29 -62
-11 -46 l21 19 -20 -59 c-16 -45 -36 -75 -88 -129 -97 -100 -119 -132 -36 -52
38 37 73 67 76 67 4 0 0 -16 -8 -35 -18 -44 -10 -46 12 -2 9 17 33 49 53 71
20 21 49 52 64 68 15 17 26 32 24 35 -3 2 28 61 69 130 88 152 104 191 80 208
-8 7 -14 14 -11 16 9 9 53 177 59 227 5 40 4 52 -7 52 -9 0 -18 -23 -26 -65
-13 -73 -69 -235 -125 -365 -45 -103 -24 -87 38 30 25 47 46 78 46 70 0 -8
-41 -85 -90 -170 -49 -85 -90 -153 -90 -150 0 16 64 190 105 284 26 60 48 125
50 145 1 20 10 74 20 120 11 56 15 102 11 138 -6 52 -45 145 -66 158 -5 3 -10
17 -10 31 0 13 -4 24 -8 24 -5 0 -7 48 -4 108 5 129 -17 229 -80 362 -23 50
-41 105 -44 135 -3 28 -16 73 -30 102 -51 106 -228 230 -363 255 -31 5 -87 18
-126 29 -70 18 -212 40 -243 38 -9 -1 -30 -4 -47 -6z m-139 -68 c-32 -14 -64
-29 -71 -35 -8 -6 -21 -7 -36 -2 -21 8 -18 11 31 29 104 39 166 45 76 8z m363
-16 c189 -62 269 -108 389 -222 49 -48 54 -39 13 24 -31 48 -64 81 -128 126
-29 21 -39 34 -33 43 11 18 136 -56 207 -123 43 -40 52 -54 47 -73 -4 -15 8
-55 34 -116 45 -105 71 -206 102 -388 12 -68 24 -127 27 -130 3 -3 3 47 1 110
-6 129 5 120 24 -19 8 -64 8 -103 0 -142 -6 -31 -6 -55 -1 -57 21 -8 -37 -86
-127 -170 -139 -131 -129 -127 -376 -126 -158 1 -208 -2 -208 -11 0 -8 27 -15
80 -19 61 -6 80 -11 80 -22 0 -13 -10 -14 -57 -9 -175 22 -428 141 -541 256
-60 60 -165 219 -201 304 -55 131 -73 249 -50 335 2 8 -1 14 -7 13 -17 -3 12
120 42 179 13 25 34 54 47 65 43 33 351 183 407 198 80 20 90 19 229 -26z
m-499 -53 c0 -5 -108 -76 -116 -76 -4 0 1 9 12 21 25 28 104 70 104 55z m-181
-773 c46 -94 114 -197 158 -235 53 -46 68 -72 17 -30 -94 76 -171 175 -194
247 -7 22 -15 47 -18 55 -3 8 -8 -3 -11 -25 l-6 -40 -17 55 c-13 42 -16 73
-11 124 l6 69 17 -67 c10 -37 36 -105 59 -153z m1411 -209 c0 -17 -61 -98 -95
-126 -11 -10 -27 -18 -36 -18 -9 0 -22 -7 -30 -16 -7 -8 -26 -22 -43 -31 -37
-18 -31 -12 61 66 35 29 77 75 94 102 31 46 49 55 49 23z m-280 -264 c-34 -30
-35 -30 -155 -29 l-120 1 137 22 c75 11 140 24 144 29 4 4 12 7 18 7 6 -1 -5
-14 -24 -30z m60 -15 c-7 -9 -15 -13 -18 -10 -3 2 1 11 8 20 7 9 15 13 18 10
3 -2 -1 -11 -8 -20z"/>
<path d="M5077 5415 c-34 -41 -63 -120 -71 -195 -5 -50 -5 -52 7 -28 11 24 13
9 12 -110 0 -141 13 -216 24 -138 l6 40 28 -42 c27 -42 47 -48 47 -15 0 9 13
53 29 97 35 96 40 118 26 123 -6 2 -23 -20 -37 -49 -20 -40 -27 -47 -27 -30
-1 13 6 37 15 54 11 21 13 33 5 37 -7 5 -8 17 -2 37 16 51 23 64 37 64 20 0
17 24 -8 73 -12 23 -24 58 -27 77 -8 46 -29 47 -64 5z m10 -126 l-24 -74 2 55
c1 31 10 70 20 90 29 54 30 15 2 -71z m28 -65 c-17 -34 -20 -18 -4 23 6 15 13
23 15 17 3 -6 -2 -24 -11 -40z m-5 -195 c0 -10 -4 -19 -10 -19 -5 0 -10 12
-10 26 0 14 4 23 10 19 6 -3 10 -15 10 -26z m-3 -51 c-3 -8 -6 -5 -6 6 -1 11
2 17 5 13 3 -3 4 -12 1 -19z"/>
<path d="M2899 5747 c-26 -34 -57 -79 -70 -99 -13 -21 -30 -38 -38 -38 -7 0
-11 -6 -8 -14 3 -7 -8 -33 -24 -57 l-29 -44 0 48 c0 26 -4 47 -9 47 -5 0 -14
-21 -20 -47 -25 -101 -113 -381 -141 -447 -17 -38 -28 -71 -26 -74 6 -5 112
175 210 356 47 86 80 159 84 184 4 30 23 67 64 125 32 45 63 85 68 88 6 3 10
13 10 21 0 29 -27 11 -71 -49z m-171 -316 c-24 -44 -44 -78 -46 -76 -13 12 65
155 85 155 2 0 -15 -36 -39 -79z"/>
<path d="M3675 5780 c-186 -28 -375 -80 -375 -102 0 -6 8 -7 18 -3 69 28 139
47 283 74 270 53 301 66 74 31z"/>
<path d="M6445 5750 c-8 -13 4 -166 15 -195 5 -11 6 30 3 90 -3 61 -7 111 -8
113 -2 2 -6 -2 -10 -8z"/>
<path d="M8737 5743 c-21 -35 -58 -185 -56 -228 1 -28 -1 -56 -4 -62 -14 -22
20 -20 48 3 17 13 40 24 53 24 20 0 22 -5 22 -49 0 -58 -15 -74 -40 -41 -24
31 -43 19 -27 -18 19 -44 76 -118 101 -132 17 -8 22 -18 18 -36 -5 -29 9 -31
26 -3 20 32 25 108 13 184 -7 39 -16 98 -21 133 -9 67 -48 156 -82 184 -11 10
-18 25 -14 33 3 10 -1 15 -14 15 -10 0 -21 -3 -23 -7z m33 -83 c0 -5 -4 -10
-10 -10 -5 0 -10 5 -10 10 0 6 5 10 10 10 6 0 10 -4 10 -10z m0 -130 c0 -5 -4
-10 -10 -10 -5 0 -10 5 -10 10 0 6 5 10 10 10 6 0 10 -4 10 -10z m-48 -22 c-7
-7 -12 -8 -12 -2 0 14 12 26 19 19 2 -3 -1 -11 -7 -17z m135 -220 c-2 -13 -4
-5 -4 17 -1 22 1 32 4 23 2 -10 2 -28 0 -40z"/>
<path d="M6757 5693 c-3 -21 -8 -90 -11 -153 l-5 -115 13 95 c22 157 27 210
17 210 -4 0 -11 -17 -14 -37z"/>
<path d="M6382 5555 c-1 -60 -4 -148 -7 -195 -4 -70 -3 -78 5 -46 6 22 9 110
7 195 -2 131 -3 138 -5 46z"/>
<path d="M6535 5608 c-23 -79 -47 -214 -43 -251 2 -24 10 -6 32 78 16 61 37
132 47 160 14 38 16 51 6 57 -21 14 -26 9 -42 -44z"/>
<path d="M2870 5599 l-35 -30 43 21 c41 20 43 20 39 3 -38 -131 -48 -171 -62
-246 -18 -99 -16 -145 5 -80 l13 41 83 -1 c79 -2 83 -3 78 -22 -3 -11 -24 -39
-46 -62 -40 -41 -44 -69 -7 -60 15 4 17 0 12 -24 -9 -48 19 -35 72 31 26 33
50 60 51 60 6 0 -14 -47 -61 -140 -51 -102 -53 -134 -8 -104 l28 17 -16 -24
c-28 -43 -33 -54 -35 -66 -3 -18 -74 -113 -85 -113 -5 0 -9 -5 -9 -11 0 -6 8
-8 19 -4 17 5 16 -2 -13 -69 -20 -49 -36 -74 -44 -71 -15 5 -41 -51 -73 -156
-12 -39 -22 -69 -24 -67 -1 2 2 74 8 160 12 176 5 212 -36 206 -15 -2 -30 -19
-49 -57 -15 -30 -30 -56 -32 -58 -2 -2 3 28 11 67 11 53 12 74 3 85 -8 10 -7
43 5 131 8 65 15 138 15 162 0 33 5 48 23 62 12 10 19 22 15 26 -10 9 -110
-69 -152 -118 -35 -40 -91 -137 -84 -144 2 -2 25 24 50 59 26 34 63 78 83 97
l36 35 -7 -55 c-3 -30 -11 -59 -18 -65 -6 -5 -23 -44 -38 -85 -14 -41 -36
-101 -49 -133 -12 -31 -19 -60 -16 -64 4 -3 23 7 42 22 20 15 39 24 42 21 4
-3 0 -50 -7 -104 -17 -128 -10 -265 16 -314 l19 -37 -3 132 -4 132 34 52 c18
28 38 60 45 70 9 14 12 -39 12 -249 -1 -210 -4 -269 -14 -278 -11 -9 -11 -17
-1 -43 7 -18 14 -70 14 -117 1 -72 29 -259 48 -318 10 -28 -62 57 -122 146
-31 46 -59 81 -61 78 -8 -8 36 -75 119 -178 43 -53 78 -99 78 -103 0 -4 -10
-5 -21 -2 -19 5 -18 2 8 -26 21 -23 36 -57 52 -116 12 -45 20 -85 18 -88 -6
-6 -269 101 -476 193 -91 41 -166 72 -169 69 -5 -5 173 -91 376 -181 98 -43
151 -73 165 -91 12 -16 51 -59 88 -98 58 -61 69 -78 84 -134 9 -35 14 -65 12
-68 -7 -6 -400 59 -712 118 -264 50 -282 53 -274 44 9 -8 500 -104 749 -145
134 -23 246 -42 247 -44 5 -4 40 -166 37 -166 -10 0 -64 96 -64 112 0 10 -5
18 -11 18 -25 0 3 -68 63 -154 l61 -89 -169 7 c-188 7 -347 20 -534 41 -69 8
-152 17 -185 21 -110 12 -52 -4 90 -25 187 -28 401 -48 624 -60 101 -6 186
-12 188 -15 3 -3 26 -54 53 -114 26 -61 62 -135 79 -165 17 -30 31 -58 31 -63
0 -5 -40 32 -90 81 -91 90 -104 109 -72 99 14 -5 14 -3 -3 10 -23 19 -39 16
-43 -8 -2 -10 28 -49 78 -100 l82 -84 -94 -6 c-642 -40 -1513 -69 -1873 -63
-169 3 -246 2 -195 -3 47 -4 216 -11 375 -15 299 -8 517 -2 1244 35 212 11
428 20 481 20 l96 0 46 -48 c39 -40 98 -122 98 -136 0 -3 -8 -5 -17 -5 -81 1
-696 -173 -1033 -291 -199 -70 -512 -191 -507 -197 2 -2 82 26 178 63 424 160
916 309 1278 386 l65 14 79 -79 c43 -43 77 -80 75 -81 -2 -1 -86 -15 -188 -30
-889 -132 -1551 -360 -2252 -779 -120 -71 -165 -105 -60 -46 739 420 1295 626
2062 763 131 24 416 66 444 66 29 0 94 -79 75 -91 -31 -19 17 -78 149 -184 2
-2 -64 -37 -145 -80 -81 -42 -215 -117 -298 -165 l-150 -89 -145 -20 c-80 -11
-230 -29 -335 -41 -672 -73 -1237 -203 -1730 -397 -217 -86 -526 -249 -602
-319 l-28 -25 40 24 c90 54 217 119 322 166 l112 50 -61 -77 c-60 -76 -123
-191 -116 -213 2 -6 23 16 46 50 24 34 45 61 47 61 3 0 -11 -28 -30 -63 -19
-35 -35 -69 -35 -75 0 -57 248 104 545 352 50 42 93 76 98 76 11 0 9 -11 -12
-76 -11 -32 -19 -60 -17 -61 7 -8 78 168 72 182 -14 36 -53 12 -249 -154 -166
-139 -401 -321 -417 -321 -6 0 -10 4 -10 8 0 15 94 166 144 230 44 58 47 64
31 76 -15 11 -3 18 89 54 499 197 1024 320 1706 402 140 17 298 37 350 44 52
7 96 12 98 11 2 -2 -34 -29 -80 -60 -159 -111 -425 -332 -518 -431 -30 -32
-18 -24 40 27 146 129 279 238 394 324 184 136 212 152 296 165 198 32 424
107 418 139 -5 20 -11 19 -136 -24 -105 -37 -282 -80 -266 -65 23 21 261 156
397 225 l153 77 66 -46 c82 -57 202 -115 254 -122 37 -5 36 -4 -19 20 -56 24
-257 150 -257 161 0 13 130 63 152 58 17 -3 19 -2 9 5 -11 8 -6 14 25 27 110
47 406 158 534 200 123 40 148 45 165 34 27 -17 85 -29 85 -18 0 5 -9 9 -19 9
-11 0 -32 5 -48 11 -28 12 -28 12 27 28 l54 17 41 -42 c42 -44 101 -68 142
-58 18 5 23 2 23 -14 0 -25 25 -52 48 -52 12 0 9 4 -8 13 -20 11 -24 20 -22
46 2 31 1 32 -30 30 -68 -4 -88 1 -128 38 -23 20 -37 40 -33 44 4 4 44 16 88
25 44 9 84 21 89 26 16 13 -57 9 -130 -7 -62 -15 -101 -15 -55 0 28 9 27 29
-1 22 -28 -7 -158 -26 -178 -26 -64 1 -828 -77 -1005 -102 l-70 -10 -30 35
c-37 43 -90 136 -76 136 5 0 22 -11 38 -24 52 -43 156 -106 176 -106 14 0 6 7
-22 23 -23 12 -66 42 -96 67 -65 53 -67 51 100 74 204 27 351 36 585 36 250 0
374 -9 655 -45 220 -29 245 -30 245 -12 0 15 -270 56 -510 78 -289 27 -728 10
-1034 -40 l-119 -20 -44 37 c-46 38 -106 125 -95 136 8 8 529 -2 782 -14 102
-6 310 -19 463 -31 244 -19 303 -20 286 -5 -2 2 -74 9 -159 15 -85 7 -240 18
-345 26 -248 19 -644 35 -870 35 l-180 0 -37 68 c-21 38 -51 99 -68 136 l-30
68 112 -114 c62 -63 101 -101 87 -84 -93 109 -220 269 -216 273 15 15 731 -31
1132 -73 253 -26 611 -42 585 -26 -8 5 -71 12 -140 16 -69 4 -235 18 -370 32
-365 37 -572 52 -910 65 -168 6 -310 13 -317 15 -12 3 -73 180 -73 213 0 11
-7 26 -15 35 -24 24 -18 29 26 23 34 -4 54 -17 107 -69 l66 -63 -47 57 c-26
31 -47 58 -47 61 0 5 376 -50 600 -88 200 -34 375 -72 633 -139 114 -30 207
-50 207 -45 0 11 -94 40 -326 99 -239 62 -437 98 -829 155 l-310 44 -61 68
c-49 53 -64 79 -73 118 -6 28 -14 60 -17 73 l-7 23 54 -21 c30 -12 59 -28 65
-36 7 -9 13 -11 16 -4 2 7 30 1 78 -15 164 -56 470 -141 995 -274 303 -77 591
-151 640 -165 98 -28 115 -30 115 -17 0 13 -177 62 -715 197 -275 69 -587 150
-693 180 -176 50 -419 127 -427 136 -9 10 -41 148 -34 148 5 0 9 -8 9 -18 0
-14 19 -27 66 -47 41 -18 80 -43 105 -70 45 -47 140 -100 165 -91 11 4 14 13
10 31 -6 24 -4 24 85 -20 50 -25 96 -42 100 -39 16 10 9 31 -13 43 -20 10 -17
10 17 4 63 -11 118 -9 122 4 3 8 -31 29 -84 54 -100 47 -98 51 27 63 l75 8
-24 -26 c-15 -15 -21 -31 -17 -42 8 -20 38 -14 121 27 69 34 245 171 227 177
-6 2 -26 -8 -44 -21 -18 -13 -44 -27 -58 -30 -14 -3 -59 -15 -100 -26 -41 -11
-131 -27 -199 -35 -154 -18 -175 -37 -95 -84 29 -18 33 -22 14 -18 -14 3 -52
11 -85 16 -33 6 -87 20 -120 31 -33 12 -73 24 -90 29 -31 8 -210 110 -232 133
-18 18 -43 140 -43 214 0 34 -3 68 -6 77 -12 31 -24 15 -25 -31 l0 -48 -29 75
c-25 64 -29 90 -29 175 -1 107 6 113 34 25 35 -113 207 -435 191 -358 -4 15
-34 87 -67 160 -34 73 -72 162 -85 198 -29 74 -51 103 -76 97 -10 -3 -21 -1
-24 4 -3 5 -12 9 -20 9 -12 0 -12 -3 1 -24 10 -15 15 -40 13 -68 l-3 -43 -32
89 c-44 118 -44 178 -2 226 17 19 49 71 71 115 76 150 130 234 260 403 37 48
68 90 68 94 0 3 -7 8 -15 10 -10 2 13 48 80 158 92 150 96 156 145 176 42 17
61 19 113 13 68 -9 169 3 224 26 20 8 46 15 59 15 15 0 22 5 18 13 -5 15 44
42 130 72 33 11 62 26 64 34 3 9 -2 11 -17 6 -11 -3 -39 -8 -60 -10 -22 -2
-48 -8 -58 -14 -24 -12 -223 -41 -301 -42 -50 -2 -45 -3 33 -10 50 -5 106 -6
125 -3 28 4 33 3 23 -7 -14 -14 -31 -15 -238 -11 -136 2 -162 12 -75 27 19 4
62 19 95 35 71 34 60 33 -143 -12 -73 -16 -150 -28 -170 -27 -20 1 -61 -5 -90
-14 l-53 -16 7 33 c6 36 -4 50 -30 40 -10 -4 -14 -14 -11 -28 9 -38 -9 -49
-92 -56 -43 -4 -81 -5 -85 -3 -4 2 -1 20 6 41 27 79 59 220 53 236 -10 24 -38
19 -77 -15z m525 -263 c39 -8 63 -14 54 -15 -23 -1 -106 -47 -150 -82 -20 -16
-42 -29 -49 -29 -7 0 -37 -21 -66 -46 -30 -25 -54 -43 -54 -41 0 9 60 182 69
197 15 28 95 35 196 16z m-336 -147 c-44 -66 -58 -72 -34 -16 12 29 57 77 72
77 2 0 -15 -27 -38 -61z m179 -81 c-39 -62 -100 -165 -136 -228 -55 -97 -101
-167 -144 -215 -5 -5 17 47 50 116 36 75 87 163 129 220 38 52 83 114 98 139
36 55 56 80 66 80 4 0 -24 -51 -63 -112z m-145 -12 c-4 -22 -43 -69 -43 -53 0
7 41 77 45 77 1 0 0 -11 -2 -24z m-437 -239 c-5 -29 -16 -52 -33 -68 -14 -13
-23 -17 -20 -9 3 8 16 40 29 72 13 31 25 54 27 53 2 -2 0 -24 -3 -48z m224
-331 c0 -2 -11 -28 -25 -57 -14 -30 -24 -46 -21 -37 3 9 10 35 16 57 6 23 15
41 20 41 6 0 10 -2 10 -4z m-66 -570 c22 -59 26 -87 24 -147 l-3 -74 -27 138
c-16 76 -28 142 -28 147 0 22 9 6 34 -64z m96 -261 c22 -59 40 -111 40 -116 0
-4 -18 2 -40 14 -49 27 -60 59 -53 151 3 37 7 65 9 63 2 -2 22 -52 44 -112z
m17 -147 c21 -12 39 -23 41 -24 4 -3 62 -157 62 -166 0 -13 -90 24 -99 41 -11
19 -51 171 -46 171 2 0 21 -10 42 -22z m923 -119 c-32 -27 -135 -79 -155 -79
-24 0 -17 17 17 42 25 18 120 52 158 57 3 0 -6 -9 -20 -20z m-1003 -35 c38
-15 45 -22 57 -63 7 -25 12 -48 10 -50 -2 -2 -5 -2 -6 0 -2 3 -30 33 -63 67
-33 34 -55 62 -50 62 5 0 29 -7 52 -16z m467 -83 c-2 -3 -12 3 -22 13 -16 17
-16 18 5 5 12 -7 20 -15 17 -18z m-254 -221 c0 -11 -61 2 -65 14 -2 6 -6 25
-10 41 l-6 30 40 -40 c23 -21 41 -42 41 -45z m341 -942 l22 -33 -31 29 c-34
32 -37 36 -23 36 5 0 20 -15 32 -32z m1154 -97 c-205 -69 -463 -168 -593 -227
l-74 -34 -51 26 c-68 35 -280 174 -274 181 21 21 1023 108 1045 91 8 -7 12 -7
12 0 0 5 21 14 48 20 104 22 78 8 -113 -57z m-948 -122 l58 -41 -40 7 c-38 7
-55 20 -76 58 -14 25 -7 22 58 -24z m169 -96 l97 -47 -62 -29 c-72 -34 -71
-34 -173 63 l-63 59 52 1 c41 0 70 -9 149 -47z"/>
<path d="M7073 5584 c27 -53 38 -116 51 -288 l13 -171 1 145 c1 80 -3 164 -7
188 -7 36 -6 42 9 42 38 0 75 -73 89 -172 8 -60 7 -65 -26 -125 -40 -73 -38
-86 2 -17 19 33 30 43 35 33 6 -8 9 -3 12 17 2 17 10 30 19 32 26 5 41 -75 46
-253 8 -241 23 -234 20 10 -3 214 -10 256 -45 270 -8 3 -20 1 -27 -5 -10 -8
-14 4 -19 51 -12 105 -55 179 -105 179 -10 0 -25 18 -36 42 -11 23 -26 44 -33
46 -11 3 -11 -2 1 -24z"/>
<path d="M10512 5553 c-18 -28 -73 -90 -123 -138 -101 -98 -66 -86 42 14 69
63 124 140 117 162 -2 7 -19 -11 -36 -38z"/>
<path d="M10690 5446 c-97 -94 -203 -188 -275 -244 l-30 -24 40 23 c119 67
340 254 373 316 26 49 -9 26 -108 -71z"/>
<path d="M10525 5394 c-38 -25 -145 -88 -237 -141 -92 -54 -166 -99 -164 -101
11 -11 407 211 474 265 47 39 1 24 -73 -23z"/>
<path d="M7032 5268 c6 -64 48 -251 56 -243 2 2 -3 57 -12 122 -24 175 -26
183 -38 183 -7 0 -9 -21 -6 -62z"/>
<path d="M10530 5190 c-96 -61 -179 -115 -185 -121 -19 -19 203 90 292 143 80
48 106 76 78 84 -5 2 -89 -46 -185 -106z"/>
<path d="M6347 5123 c6 -147 11 -151 12 -10 1 64 -3 117 -8 117 -5 0 -7 -48
-4 -107z"/>
<path d="M10465 5001 c-99 -97 -192 -189 -205 -205 l-25 -30 30 23 c57 43 307
276 351 328 92 107 23 54 -151 -116z"/>
<path d="M11390 5106 c0 -2 25 -30 56 -63 31 -32 69 -76 84 -98 l28 -40 -152
0 c-152 0 -212 -7 -201 -25 4 -6 83 -10 193 -10 l187 0 24 -35 c13 -20 22 -38
19 -40 -3 -3 -36 -16 -74 -29 -38 -13 -86 -31 -106 -40 -21 -9 -38 -14 -38
-11 0 2 17 13 38 24 20 11 33 20 27 21 -17 0 -99 -33 -138 -58 -31 -18 -38
-28 -34 -45 4 -17 -4 -30 -39 -57 -24 -19 -44 -39 -44 -44 0 -9 14 1 70 50 14
12 57 34 95 49 39 15 114 48 169 73 80 36 100 42 108 31 8 -11 9 -10 4 3 -3
10 2 22 12 27 15 9 15 10 -4 11 -23 0 -64 70 -41 70 7 0 5 5 -5 10 -9 6 -39
41 -68 80 -55 74 -134 150 -156 150 -8 0 -14 -2 -14 -4z"/>
<path d="M7236 5063 c3 -16 11 -77 19 -138 l14 -110 -4 110 c-5 119 -13 165
-26 165 -5 0 -6 -12 -3 -27z"/>
<path d="M6566 5003 c7 -43 18 -125 23 -183 l9 -105 -5 135 c-4 134 -18 230
-32 230 -4 0 -2 -35 5 -77z"/>
<path d="M10786 5041 c-4 -6 -80 -70 -169 -142 -179 -146 -191 -156 -162 -141
33 17 174 120 248 181 38 31 79 64 90 73 17 13 19 20 11 28 -8 8 -14 8 -18 1z"/>
<path d="M10625 4968 c-33 -24 -123 -78 -200 -120 -76 -43 -136 -78 -133 -78
13 0 194 85 259 122 65 37 163 117 144 118 -6 0 -37 -19 -70 -42z"/>
<path d="M7408 4983 c-13 -16 -49 -107 -48 -122 1 -3 13 18 28 48 15 30 33 56
39 58 23 8 51 -101 84 -327 11 -80 23 -147 26 -150 3 -3 3 50 1 117 -1 68 -6
123 -9 123 -4 0 -9 16 -11 36 -4 32 -3 34 9 18 7 -10 13 -24 13 -31 0 -8 6
-24 14 -36 17 -26 60 -155 92 -277 30 -115 30 -80 0 45 -27 111 -81 265 -119
341 -13 27 -32 73 -41 102 -10 29 -26 57 -36 62 -24 13 -24 13 -42 -7z"/>
<path d="M3257 4846 c-21 -128 -21 -126 1 -126 11 0 27 17 42 48 l24 47 9 -45
c12 -63 24 -90 40 -90 10 0 21 -34 36 -110 12 -60 28 -131 36 -158 14 -47 73
-147 82 -139 7 7 -96 439 -108 453 -6 8 -15 12 -19 9 -4 -2 -10 26 -14 63 -8
82 -16 96 -49 90 -24 -5 -25 -3 -20 29 5 30 3 33 -19 33 -23 0 -25 -5 -41
-104z"/>
<path d="M8032 4778 c2 -88 8 -140 16 -153 12 -17 13 -17 8 -2 -3 10 -6 79 -6
153 0 91 -4 134 -11 134 -8 0 -10 -41 -7 -132z"/>
<path d="M11727 4753 c-4 -6 16 -47 43 -90 55 -87 115 -239 124 -318 5 -40 1
-33 -19 37 -37 134 -73 194 -98 169 -8 -8 -7 -19 5 -39 54 -91 124 -431 112
-547 -22 -229 -74 -445 -138 -573 -24 -48 -61 -131 -82 -185 l-38 -98 -45 5
c-347 44 -998 44 -1421 0 -284 -29 -582 -78 -718 -119 -79 -24 -54 -35 30 -13
170 43 502 96 777 123 363 36 916 38 1246 5 55 -5 104 -10 109 -10 13 0 2 -23
-84 -175 l-79 -140 -191 17 c-104 10 -411 33 -682 53 -271 20 -598 44 -726 55
-346 29 -805 23 -837 -12 -7 -7 -1 -9 20 -4 17 4 145 10 285 13 194 4 304 1
460 -12 113 -9 207 -18 209 -20 4 -5 -161 -86 -234 -115 -33 -13 -63 -27 -66
-32 -3 -4 -54 -13 -115 -18 -131 -12 -214 -28 -214 -41 0 -5 10 -7 23 -4 96
21 517 44 517 27 0 -4 -61 -36 -135 -71 -74 -35 -135 -68 -135 -73 0 -4 2 -8
4 -8 12 0 218 102 249 124 46 32 94 33 313 11 388 -41 719 -107 1107 -222 176
-52 162 -38 172 -160 l6 -72 -53 23 c-79 35 -98 39 -98 24 0 -7 35 -31 78 -53
l77 -40 9 -98 c5 -54 6 -100 3 -103 -3 -3 -72 24 -153 59 -465 201 -966 360
-1344 427 -164 29 -156 25 -123 56 l28 25 -41 -26 c-39 -24 -45 -25 -105 -16
-145 22 -777 76 -787 67 -5 -6 72 -14 313 -31 243 -18 484 -44 503 -54 10 -6
-12 -24 -66 -59 -118 -76 -120 -76 -194 -62 -88 17 -440 26 -464 12 -15 -9 13
-12 116 -12 124 -1 365 -22 377 -34 3 -2 -29 -23 -71 -46 -42 -23 -76 -46 -76
-52 0 -5 44 13 97 42 111 59 84 59 330 -1 579 -141 1233 -439 1958 -891 61
-38 127 -88 148 -111 22 -23 34 -32 28 -19 -12 24 14 8 210 -123 46 -31 71
-45 54 -31 -30 26 -232 172 -272 196 -12 8 -43 52 -69 99 -65 118 -174 299
-240 399 -64 98 -68 98 111 13 103 -49 184 -95 330 -186 36 -23 25 -9 -33 39
-52 43 -49 44 21 11 29 -14 44 -19 34 -12 -10 8 -109 61 -220 117 -111 57
-203 104 -205 106 -7 5 -24 155 -18 161 3 3 33 -18 66 -47 33 -29 63 -50 66
-48 3 3 -29 39 -70 81 -77 77 -80 84 -91 192 -2 22 -8 60 -14 85 -5 24 -9 45
-8 46 3 3 322 -124 427 -170 47 -21 182 -87 300 -147 232 -119 259 -128 85
-28 -192 110 -487 246 -736 339 -83 31 -87 33 -92 67 -10 59 -49 183 -58 183
-13 0 -11 -24 12 -112 11 -44 18 -83 15 -86 -4 -3 -6 -1 -6 4 0 5 -21 45 -46
89 -39 66 -49 97 -63 178 l-17 97 36 0 c19 0 45 -3 57 -6 l22 -6 -29 -52 c-17
-29 -30 -56 -30 -59 0 -19 18 -2 45 40 l30 48 12 -80 c7 -44 19 -100 28 -125
9 -28 13 -34 10 -15 -3 17 -8 77 -12 134 l-6 104 69 -7 c214 -22 630 -108 854
-176 68 -21 126 -37 128 -35 6 6 -160 66 -277 100 -149 43 -337 80 -576 115
-122 18 -189 31 -188 39 2 9 169 290 177 298 4 5 200 -27 329 -53 71 -14 131
-24 133 -21 6 6 -166 43 -286 62 -58 9 -119 19 -137 23 l-31 7 35 60 c42 71
173 306 197 353 30 59 8 33 -45 -53 -28 -47 -54 -84 -56 -82 -1 2 2 28 7 58
18 90 23 344 10 469 -6 63 -15 196 -20 295 -10 209 -28 296 -90 413 -46 88
-103 161 -113 145z m197 -1263 l-6 -145 -71 -122 c-71 -121 -72 -123 -109
-123 -72 0 -72 1 -6 130 33 65 62 137 65 160 4 25 27 76 58 128 69 115 62 126
-14 24 -20 -27 -20 -27 0 31 11 32 29 98 40 145 11 48 23 98 26 112 12 45 24
-188 17 -340z m-170 -408 c4 -7 -114 -216 -131 -232 -9 -8 4 88 22 168 l17 72
43 0 c24 0 46 -4 49 -8z m-159 -157 c-8 -44 -14 -97 -15 -118 l0 -38 -57 7
c-32 3 -59 7 -60 8 -1 1 30 52 69 114 39 61 73 111 74 109 2 -1 -3 -39 -11
-82z m-1220 -75 c727 -49 938 -67 930 -81 -3 -4 14 -34 38 -66 82 -110 104
-154 111 -220 l7 -61 -128 40 c-493 152 -1110 257 -1523 258 l-85 1 78 34 c43
19 107 54 143 77 49 33 73 43 97 41 18 -2 167 -12 332 -23z m1042 -84 c0 -1 5
-30 11 -66 9 -61 9 -64 -7 -41 -9 13 -36 45 -60 72 l-44 49 49 -6 c27 -4 50
-7 51 -8z m-1372 -327 c413 -82 833 -218 1300 -421 148 -64 172 -78 139 -78
-18 0 -18 -1 3 -18 12 -9 26 -37 32 -62 l11 -45 -4 43 c-6 60 16 55 57 -15 19
-32 98 -158 175 -280 77 -123 139 -223 137 -223 -2 0 -66 39 -142 87 -708 445
-1454 774 -2036 899 -43 9 -76 18 -74 20 2 2 46 33 97 69 79 54 98 63 124 58
17 -3 98 -18 181 -34z m1464 5 c12 -20 20 -38 18 -40 -10 -10 -37 10 -37 26 0
10 -3 25 -6 34 -11 28 3 17 25 -20z m23 -64 c39 -18 68 -76 84 -163 8 -45 14
-85 14 -89 0 -3 -27 11 -60 33 -64 44 -64 42 -74 167 -6 65 -3 69 36 52z m107
-318 c10 -20 35 -161 29 -168 -3 -2 -37 10 -76 28 l-72 32 0 41 c0 23 -3 70
-7 105 l-6 63 61 -42 c34 -23 66 -49 71 -59z"/>
<path d="M10420 4548 c-80 -78 -125 -126 -100 -108 57 44 268 250 255 249 -5
0 -75 -64 -155 -141z"/>
<path d="M3875 4613 c-11 -2 -94 -20 -185 -39 -181 -38 -211 -47 -135 -39 80
8 375 69 375 77 0 8 -21 9 -55 1z"/>
<path d="M7906 4465 c-22 -77 -41 -147 -44 -155 -3 -10 -2 -12 5 -5 14 14 85
263 81 283 -2 9 -21 -47 -42 -123z"/>
<path d="M6441 4475 c-50 -113 -113 -286 -107 -292 2 -2 38 78 81 179 96 226
89 208 77 208 -5 0 -28 -43 -51 -95z"/>
<path d="M11703 4534 c25 -122 31 -198 19 -287 -10 -78 -32 -180 -56 -262 -4
-11 5 4 19 34 14 30 36 88 48 130 39 136 25 393 -23 409 -9 3 -11 -3 -7 -24z"/>
<path d="M3980 4496 c-52 -18 -113 -43 -135 -55 -38 -21 -37 -22 13 -7 12 4
22 3 22 -2 0 -6 12 -13 26 -16 40 -11 286 -34 432 -41 l133 -7 92 -50 92 -49
-52 4 c-50 4 -53 3 -53 -19 0 -19 5 -24 28 -24 16 -1 -13 -14 -73 -35 -89 -29
-213 -80 -387 -159 -103 -46 -62 -35 80 21 330 131 455 160 552 130 39 -13 45
-17 42 -40 -2 -17 4 -30 19 -41 13 -8 21 -17 18 -19 -2 -2 -57 -23 -122 -47
-64 -24 -116 -45 -114 -46 2 -2 59 15 127 38 l125 40 78 -11 c86 -13 104 -11
57 9 -44 18 -37 28 28 35 31 4 71 11 87 15 49 13 -70 12 -137 -1 -40 -8 -61
-8 -74 0 -16 8 -11 10 27 11 34 0 49 5 53 16 4 9 5 18 4 19 -2 2 -59 18 -128
36 -113 31 -125 36 -125 57 0 19 -16 31 -90 67 l-90 43 75 2 75 1 -40 16 c-29
11 -63 13 -125 9 -90 -5 -383 16 -516 38 l-79 13 37 17 c64 28 135 39 170 27
17 -6 35 -11 40 -11 16 0 -3 21 -25 29 -57 21 -75 19 -167 -13z"/>
<path d="M7940 4394 c-35 -37 -24 -38 17 -1 l22 19 -14 -58 c-8 -33 -28 -99
-45 -148 -17 -48 -29 -91 -25 -94 11 -12 36 26 65 99 16 41 29 64 30 52 0 -13
-17 -67 -39 -120 -45 -114 -55 -153 -42 -153 26 0 109 184 118 263 6 47 5 50
-14 45 -20 -5 -21 -2 -19 60 0 37 -3 67 -9 69 -6 2 -26 -13 -45 -33z"/>
<path d="M10313 4405 c-10 -14 -118 -116 -240 -226 -214 -193 -277 -255 -175
-173 253 205 452 387 452 415 0 17 -19 9 -37 -16z"/>
<path d="M4152 4334 c-97 -28 -226 -78 -262 -100 -28 -17 -24 -16 95 28 115
42 270 78 343 78 34 0 62 4 62 10 0 20 -152 10 -238 -16z"/>
<path d="M3576 4341 c-9 -14 51 -188 87 -256 36 -68 59 -79 80 -39 l14 26 35
-75 c71 -149 238 -365 238 -309 0 5 -32 58 -71 118 -79 121 -133 224 -159 299
-21 61 -50 74 -50 22 0 -39 -18 -97 -30 -97 -8 0 -40 80 -96 238 -28 79 -36
92 -48 73z"/>
<path d="M11115 4289 c-93 -46 -124 -69 -94 -69 7 0 41 16 77 35 35 20 67 34
70 31 11 -11 -142 -200 -262 -323 -39 -40 -66 -73 -60 -73 15 0 241 233 295
305 61 80 72 102 56 108 -8 3 -6 10 8 21 30 23 19 19 -90 -35z"/>
<path d="M6320 4280 c-6 -23 -9 -44 -6 -47 2 -3 10 14 16 37 6 23 9 44 6 47
-2 3 -10 -14 -16 -37z"/>
<path d="M11380 4308 c0 -20 -143 -157 -255 -242 -119 -92 -124 -96 -103 -96
24 0 184 127 276 219 75 76 102 114 88 128 -3 4 -6 -1 -6 -9z"/>
<path d="M11766 4168 c-3 -7 -7 -44 -11 -83 -6 -72 -39 -267 -75 -440 -11 -54
-19 -100 -17 -102 7 -7 66 205 86 307 40 212 51 330 31 330 -6 0 -12 -6 -14
-12z"/>
<path d="M8026 4078 c-84 -114 -172 -257 -168 -273 2 -13 -96 -110 -104 -102
-3 2 9 52 27 109 18 60 29 113 25 123 -3 10 -9 15 -12 12 -3 -3 -23 -67 -45
-143 -22 -77 -48 -150 -58 -164 -31 -44 -33 -50 -16 -44 12 5 10 -10 -14 -75
-37 -101 -24 -98 19 5 28 68 43 88 135 178 92 90 105 106 111 145 5 33 29 74
101 172 83 114 101 149 74 149 -4 0 -38 -42 -75 -92z"/>
<path d="M5802 4031 c-105 -219 -122 -267 -73 -205 20 25 171 316 171 328 0 3
-8 6 -18 6 -14 0 -34 -32 -80 -129z"/>
<path d="M5778 3853 c-70 -148 -85 -184 -69 -168 8 9 161 295 161 302 0 2 -6
3 -13 3 -8 0 -43 -62 -79 -137z"/>
<path d="M11195 3964 c-56 -47 -263 -182 -375 -245 -61 -34 -108 -64 -106 -67
15 -14 392 220 476 296 49 45 53 56 5 16z"/>
<path d="M9790 3677 c-102 -106 -160 -172 -130 -147 66 54 260 248 297 296 60
80 6 31 -167 -149z"/>
<path d="M3973 3824 c-4 -10 11 -33 43 -66 48 -50 157 -128 178 -128 9 0 -202
209 -212 210 -1 0 -5 -7 -9 -16z"/>
<path d="M10973 3767 c-43 -35 -132 -107 -198 -159 -169 -136 -207 -171 -120
-112 167 112 437 333 408 334 -6 0 -46 -28 -90 -63z"/>
<path d="M5945 3768 c-2 -7 -6 -39 -10 -70 -9 -77 -25 -84 -26 -11 l-2 58 -7
-50 c-15 -91 -12 -221 5 -235 23 -19 45 -4 45 31 0 50 9 29 23 -52 19 -114 44
-88 46 49 1 60 -2 75 -19 92 -11 11 -20 26 -20 34 0 8 -5 18 -10 21 -6 4 -8
33 -4 76 5 50 4 69 -5 69 -6 0 -13 -6 -16 -12z"/>
<path d="M11040 3599 c-96 -49 -178 -89 -183 -89 -4 0 -1 10 8 23 8 13 12 26
9 30 -4 4 -19 -13 -34 -36 -23 -36 -42 -49 -136 -92 -239 -108 -319 -148 -308
-152 14 -5 125 39 277 111 65 31 121 56 124 56 3 0 -2 -11 -11 -25 -28 -42
-17 -40 14 3 24 33 53 53 139 96 113 57 281 153 281 161 0 3 -1 4 -2 4 -2 -1
-82 -41 -178 -90z"/>
<path d="M5391 3584 c-55 -52 -115 -114 -132 -137 -19 -26 -3 -13 42 33 41 42
103 102 138 133 35 32 61 60 58 63 -2 3 -50 -39 -106 -92z"/>
<path d="M11807 3623 c-13 -21 -58 -145 -54 -149 7 -7 68 137 64 149 -2 8 -5
8 -10 0z"/>
<path d="M9827 3523 c-19 -32 -74 -105 -122 -163 -60 -72 -73 -91 -40 -60 90
86 234 280 207 280 -5 0 -25 -26 -45 -57z"/>
<path d="M7381 3496 c-7 -8 -10 -20 -6 -26 3 -5 2 -10 -3 -10 -6 0 -13 7 -16
16 -4 10 -15 14 -33 12 -26 -3 -28 -7 -33 -56 l-5 -54 -33 46 c-36 52 -51 61
-86 52 -31 -8 -50 -62 -44 -121 l5 -43 -62 -6 c-73 -7 -127 -24 -123 -38 4
-12 5 -12 118 2 123 16 206 16 303 0 l78 -13 56 -94 c30 -52 62 -97 70 -100
18 -7 32 13 34 47 l1 25 7 -25 c4 -14 10 -41 13 -60 l6 -35 -79 -26 c-80 -26
-80 -26 -117 -8 -67 35 -137 19 -227 -51 -86 -67 -105 -107 -120 -265 -4 -44
-4 -47 6 -22 10 24 32 35 30 14 -1 -4 -1 -44 -1 -89 -1 -71 -3 -81 -14 -65
-19 25 -43 21 -54 -10 -26 -71 -25 -70 -8 -49 29 35 20 -11 -12 -63 -15 -25
-34 -61 -41 -78 -7 -18 -17 -33 -22 -33 -11 0 -28 65 -34 130 -3 30 -10 111
-15 180 -14 158 -16 171 -35 164 -11 -5 -14 -16 -10 -43 18 -141 26 -243 21
-257 -5 -14 -9 -13 -25 7 -15 18 -22 21 -31 13 -9 -9 -8 -19 5 -40 l17 -29
-21 25 c-12 14 -38 51 -58 83 -20 31 -40 57 -44 57 -21 0 -5 -44 42 -115 28
-42 49 -79 46 -82 -10 -9 -37 6 -44 24 -3 10 -18 45 -33 78 -31 68 -50 162
-29 150 17 -11 3 88 -20 140 -41 92 -156 155 -284 155 -82 0 -151 -16 -141
-32 4 -6 21 -8 39 -5 21 3 35 1 38 -6 2 -7 24 -17 48 -24 94 -25 250 -159 234
-201 -3 -7 -5 -44 -6 -80 l0 -67 -19 52 c-41 115 -131 263 -160 263 -18 0 -11
-31 14 -63 14 -18 56 -96 95 -174 67 -135 90 -172 76 -120 -6 21 -5 21 6 2 7
-11 25 -35 41 -53 15 -18 28 -42 28 -52 0 -11 5 -20 10 -20 6 0 10 6 10 14 0
12 6 12 38 0 20 -7 47 -13 60 -14 12 0 25 -6 28 -14 3 -7 25 -28 49 -45 l44
-32 -6 -107 c-4 -85 -2 -115 10 -144 9 -21 12 -38 8 -38 -5 0 -12 -15 -15 -34
-9 -47 -72 -139 -146 -211 -47 -47 -63 -57 -70 -46 -7 12 -18 9 -62 -18 -48
-29 -463 -323 -477 -337 -21 -22 134 68 307 178 111 71 227 139 257 152 129
57 239 214 236 336 -1 21 4 17 34 -27 36 -53 133 -141 212 -191 24 -15 43 -30
43 -34 0 -12 -24 -10 -37 3 -7 7 -26 2 -65 -17 l-55 -27 -94 32 c-52 17 -99
31 -106 31 -7 0 -10 -11 -9 -27 2 -21 12 -31 40 -43 45 -18 38 -30 -18 -30
-28 0 -37 -3 -29 -11 6 -6 68 -12 145 -15 l135 -4 51 37 c28 21 50 42 49 48
-1 5 9 9 23 7 27 -2 25 -1 -188 198 -115 107 -142 178 -113 288 9 32 18 42 49
55 35 14 36 15 10 16 -16 1 -28 6 -28 11 0 17 30 72 57 104 27 32 52 88 54
120 1 11 6 -4 12 -34 l10 -55 13 70 c24 136 80 263 143 319 32 29 34 15 7 -45
-14 -30 -34 -79 -46 -109 -20 -53 -20 -54 -1 -30 11 14 45 75 76 136 39 77 63
114 80 122 30 14 33 42 5 42 -52 0 -193 -109 -241 -186 -32 -52 -35 -32 -5 30
29 59 95 126 124 126 20 0 52 29 52 47 0 18 28 35 52 31 22 -3 22 -4 -7 -21
-17 -10 -22 -16 -10 -13 11 3 63 17 115 31 111 29 110 29 110 11 0 -7 6 -19
14 -25 12 -10 15 -6 21 17 5 25 13 32 51 41 50 13 61 36 14 29 -28 -4 -30 -2
-30 27 0 18 -11 49 -25 70 -16 22 -32 68 -40 113 -8 43 -21 82 -28 87 -7 6
-16 18 -20 28 -3 9 -13 17 -22 17 -19 0 -20 -35 0 -89 14 -41 14 -41 -9 -37
-31 6 -57 23 -79 52 -17 23 -17 24 0 24 10 0 30 -14 46 -32 23 -28 21 -22 -12
37 -21 39 -52 95 -67 125 -30 57 -52 71 -73 46z m-137 -115 l47 -48 -38 -6
c-21 -4 -49 -7 -63 -7 -26 0 -26 0 -16 55 6 30 13 55 16 55 3 0 27 -22 54 -49z
m240 -23 c17 -28 17 -28 -8 -28 -26 0 -27 1 -41 78 l-6 27 20 -24 c10 -14 26
-37 35 -53z m-109 2 c14 -27 14 -30 0 -30 -8 0 -15 6 -15 14 0 8 -3 21 -6 30
-11 28 5 17 21 -14z m213 -224 c5 -52 -9 -44 -41 26 l-27 61 32 -25 c25 -19
34 -35 36 -62z m102 -103 c0 -7 -4 -13 -10 -13 -5 0 -10 12 -10 28 0 21 2 24
10 12 5 -8 10 -21 10 -27z m-400 -104 c-14 -11 -33 -24 -44 -30 -32 -19 -7 11
28 32 40 25 48 24 16 -2z m-748 -81 c49 -21 128 -96 128 -122 0 -27 -16 -25
-35 5 -25 37 -72 74 -150 117 -53 29 -56 32 -25 26 19 -3 56 -15 82 -26z m631
-268 c-6 -43 -7 -44 -14 -16 -5 17 -4 37 2 48 15 28 19 19 12 -32z m-487 -66
c4 -46 3 -55 -6 -42 -16 26 -26 126 -11 112 7 -6 14 -38 17 -70z m78 -123
c-10 -10 -34 24 -34 48 1 25 1 25 20 -9 10 -19 16 -37 14 -39z"/>
<path d="M5475 3318 l-100 -102 100 94 c91 86 113 110 103 110 -2 0 -48 -46
-103 -102z"/>
<path d="M6120 3340 c-59 -58 -67 -88 -11 -37 22 20 51 43 65 52 29 19 34 35
11 35 -9 0 -38 -22 -65 -50z"/>
<path d="M6428 3374 c-69 -16 -165 -63 -210 -102 -18 -16 -57 -42 -86 -57 -51
-28 -101 -80 -88 -92 3 -4 16 3 29 15 32 31 40 27 22 -9 -21 -40 -21 -118 0
-162 9 -19 30 -47 47 -63 l30 -29 -22 44 c-12 25 -24 70 -27 100 l-4 56 47 39
c64 54 117 66 334 73 210 7 215 21 7 22 -101 1 -136 4 -131 12 7 11 268 7 399
-6 l50 -5 -45 15 c-85 29 -182 38 -342 32 l-158 -5 30 30 c31 30 105 61 175
73 72 11 85 15 85 25 0 14 -74 11 -142 -6z m-83 -164 c4 -6 -7 -10 -27 -10
-25 0 -29 3 -18 10 19 13 37 13 45 0z"/>
<path d="M5141 3340 c-78 -28 -188 -94 -246 -147 -53 -48 -45 -44 54 25 74 52
216 122 247 122 13 0 26 5 29 10 10 15 -24 11 -84 -10z"/>
<path d="M5638 3138 c-52 -71 -98 -141 -74 -113 33 38 109 145 103 145 -3 0
-15 -15 -29 -32z"/>
<path d="M5383 3023 c-28 -21 -66 -46 -85 -57 -19 -11 -28 -21 -20 -23 6 -3
10 -9 6 -14 -8 -13 3 -11 38 7 17 9 52 19 77 23 38 5 47 10 49 29 2 12 -2 22
-9 22 -8 0 -8 4 1 15 9 10 10 19 3 26 -6 6 -27 -4 -60 -28z"/>
<path d="M12278 2993 c7 -3 16 -2 19 1 4 3 -2 6 -13 5 -11 0 -14 -3 -6 -6z"/>
<path d="M12318 2983 c7 -3 16 -2 19 1 4 3 -2 6 -13 5 -11 0 -14 -3 -6 -6z"/>
<path d="M5912 2834 c-33 -50 -155 -284 -148 -284 3 0 15 19 27 43 12 23 51
93 86 155 62 109 83 158 35 86z"/>
<path d="M5000 2761 c-8 -6 -27 -7 -42 -4 -20 4 -29 1 -34 -11 -3 -9 -14 -16
-24 -16 -29 0 -36 -39 -12 -62 l20 -20 63 52 c35 29 66 57 67 61 5 12 -19 11
-38 0z"/>
<path d="M5176 2676 c-96 -106 -90 -118 35 -77 55 18 85 34 87 45 6 30 -27 29
-76 -3 -27 -17 -52 -31 -57 -31 -4 0 17 27 48 59 32 33 57 64 57 70 0 27 -34
5 -94 -63z"/>
<path d="M7490 2725 c13 -14 26 -25 28 -25 3 0 -5 11 -18 25 -13 14 -26 25
-28 25 -3 0 5 -11 18 -25z"/>
<path d="M5521 2690 c-33 -39 -39 -51 -27 -56 8 -3 29 4 45 15 l30 22 3 -43 4
-43 23 49 c18 38 21 56 15 75 -16 44 -45 38 -93 -19z"/>
<path d="M5962 2493 c-26 -38 -34 -53 -29 -53 2 0 16 18 31 40 29 45 28 56 -2
13z"/>
<path d="M7485 2400 c27 -12 43 -12 25 0 -8 5 -22 9 -30 9 -10 0 -8 -3 5 -9z"/>
<path d="M5565 2309 c-43 -38 -48 -75 -10 -65 15 4 25 2 25 -4 0 -17 36 11 55
42 35 61 -11 78 -70 27z"/>
<path d="M5177 2293 c-32 -25 -53 -54 -27 -38 15 9 12 -8 -5 -31 -8 -10 -15
-25 -15 -31 0 -25 30 -12 57 23 15 20 36 46 46 56 20 21 16 48 -6 48 -8 0 -30
-12 -50 -27z"/>
<path d="M8723 2213 c-32 -12 -5 -21 86 -27 54 -4 148 -15 207 -25 119 -21
374 -78 382 -86 6 -5 -6 -10 -67 -25 -75 -19 -36 -23 44 -4 l76 18 185 -62
c620 -208 1340 -571 1784 -900 63 -47 106 -75 96 -63 -23 26 -179 145 -291
223 -374 260 -1080 602 -1594 773 l-145 48 47 24 c65 33 59 37 -10 7 l-57 -25
-110 30 c-254 70 -576 118 -633 94z"/>
<path d="M7646 2191 c5 -5 36 -13 69 -20 33 -6 71 -14 85 -18 14 -3 22 -3 19
1 -3 3 -45 15 -94 25 -48 11 -84 16 -79 12z"/>
<path d="M6192 2000 c-73 -34 -185 -100 -179 -106 6 -6 257 119 257 128 0 12
-10 9 -78 -22z"/>
<path d="M6648 1911 c-26 -56 -45 -101 -42 -101 8 0 95 182 92 192 -2 5 -25
-36 -50 -91z"/>
<path d="M5435 1968 c-13 -19 -28 -24 -88 -29 l-72 -6 72 -1 72 -2 -15 -35
c-17 -43 -17 -45 1 -45 16 0 75 95 75 123 0 24 -26 21 -45 -5z"/>
<path d="M6494 1922 c-21 -16 -46 -37 -54 -48 -12 -15 43 25 95 68 23 20 -6 5
-41 -20z"/>
<path d="M5178 1923 c17 -2 47 -2 65 0 17 2 3 4 -33 4 -36 0 -50 -2 -32 -4z"/>
<path d="M8675 1920 c3 -5 13 -10 21 -10 28 0 139 -42 244 -92 l105 -51 -39
-9 c-61 -13 -57 -21 7 -14 54 7 60 5 120 -30 349 -210 827 -586 1210 -953 86
-82 107 -98 70 -56 -225 265 -689 656 -1115 942 -146 98 -164 112 -140 116 21
3 19 4 -10 6 -23 0 -82 23 -155 60 -65 32 -149 68 -187 80 -72 22 -142 28
-131 11z"/>
<path d="M9250 1909 c-58 -11 -109 -24 -114 -29 -7 -7 -6 -10 1 -10 19 0 267
51 272 55 9 10 -56 3 -159 -16z"/>
<path d="M7578 1903 c12 -2 30 -2 40 0 9 3 -1 5 -23 4 -22 0 -30 -2 -17 -4z"/>
<path d="M5540 1890 c-16 -5 15 -8 85 -9 74 0 105 2 95 9 -18 11 -144 11 -180
0z"/>
<path d="M5873 1840 c-127 -10 -64 -16 177 -16 138 0 250 3 250 8 0 9 -338 15
-427 8z"/>
<path d="M7486 1790 c41 -20 174 -45 197 -37 6 2 -17 8 -53 12 -36 4 -83 13
-105 20 -22 7 -49 15 -60 19 -11 3 -2 -3 21 -14z"/>
<path d="M5235 1780 c-44 -10 -136 -35 -204 -55 -85 -24 -128 -32 -135 -25
-16 16 -26 12 -26 -10 0 -11 -6 -20 -12 -20 -7 0 -83 -29 -170 -63 -172 -70
-320 -148 -495 -263 -90 -58 -122 -74 -140 -69 -46 11 -134 55 -129 63 3 5 23
14 45 22 23 7 41 17 41 22 0 15 -60 8 -99 -12 l-38 -19 -41 34 c-25 22 -44 48
-50 72 l-10 38 -1 -38 c-1 -31 6 -45 39 -80 l39 -43 -49 -38 c-74 -56 -229
-223 -291 -312 -97 -138 -87 -133 46 26 72 85 264 265 308 289 22 12 34 10
105 -19 l80 -33 -97 -75 c-88 -69 -181 -150 -303 -264 -27 -24 -48 -43 -48
-41 0 7 51 98 85 152 19 30 31 59 28 64 -4 6 -12 2 -21 -11 -8 -12 -21 -22
-28 -22 -9 0 -44 -60 -85 -142 -38 -78 -90 -166 -116 -197 l-47 -56 41 39 41
38 -33 -88 c-55 -148 -49 -146 28 12 41 82 87 162 102 177 16 14 30 25 32 23
2 -1 -10 -54 -27 -117 -36 -137 -37 -151 -4 -80 38 85 75 193 76 224 1 23 21
46 112 123 60 53 151 127 201 165 l92 69 124 -29 c68 -16 145 -33 172 -36 26
-4 47 -11 47 -16 0 -12 -35 -29 -62 -29 -18 0 -20 -2 -8 -10 12 -7 1 -21 -50
-66 -111 -97 -521 -513 -626 -634 -239 -275 -258 -307 -43 -73 295 322 521
549 699 704 l65 56 100 -13 c55 -7 162 -19 238 -27 75 -8 140 -17 143 -20 3
-3 -15 -33 -40 -66 -25 -33 -46 -62 -46 -65 0 -3 -15 -29 -34 -58 -38 -60 -73
-128 -59 -113 6 6 34 45 62 88 28 42 55 77 59 77 4 0 39 -7 77 -15 104 -22
113 -16 13 9 l-87 21 46 64 46 63 51 -5 51 -5 -42 10 c-24 6 -43 14 -43 17 0
10 137 172 236 279 61 65 103 102 116 102 14 0 18 5 14 15 -5 14 58 74 164
157 19 15 30 27 24 28 -17 0 -95 -55 -174 -125 -50 -44 -91 -70 -125 -81 -53
-17 -139 -63 -132 -70 2 -2 28 6 58 20 107 46 108 44 28 -42 -41 -45 -111
-126 -155 -181 -55 -69 -86 -100 -100 -100 -30 -1 -457 49 -462 53 -13 13 366
280 511 360 61 33 74 37 113 31 29 -4 44 -11 44 -21 0 -21 18 -17 25 6 8 26
-1 40 -26 40 -10 0 -19 4 -19 8 0 10 129 60 193 74 77 17 84 31 12 25 -39 -3
-98 -20 -164 -47 -83 -34 -109 -41 -130 -34 -26 10 -74 70 -68 88 7 20 395
116 472 116 24 0 35 -5 35 -15 0 -8 5 -15 11 -15 6 0 9 12 7 28 -3 26 -5 27
-63 29 -33 1 -96 -7 -140 -17z m-341 -157 c8 -16 28 -41 44 -57 l31 -28 -110
-67 c-120 -73 -248 -161 -352 -244 l-67 -54 -63 14 c-60 14 -228 59 -256 69
-27 9 229 167 422 259 97 47 308 133 329 135 4 0 14 -12 22 -27z"/>
<path d="M6570 1693 c-119 -72 -125 -83 -11 -22 81 43 129 75 121 81 -3 2 -52
-24 -110 -59z"/>
<path d="M1760 1700 c-8 -5 -10 -10 -5 -10 6 0 17 5 25 10 8 5 11 10 5 10 -5
0 -17 -5 -25 -10z"/>
<path d="M8550 1701 c0 -5 14 -14 32 -20 51 -18 164 -84 150 -89 -23 -7 -12
-24 12 -18 17 4 38 -5 82 -36 261 -185 516 -438 858 -849 67 -80 136 -163 154
-185 l33 -39 -29 45 c-55 84 -237 318 -343 442 -189 220 -457 476 -616 586
-57 40 -65 52 -32 52 24 0 163 39 157 45 -1 1 -47 -7 -100 -18 l-98 -20 -102
51 c-105 52 -158 70 -158 53z"/>
<path d="M7310 1682 c0 -9 22 -17 125 -46 28 -8 88 -28 134 -45 47 -17 87 -31
90 -31 3 1 -19 14 -49 31 -30 16 -46 28 -35 25 11 -2 112 -21 225 -41 113 -20
234 -46 270 -57 93 -29 224 -35 289 -13 75 25 70 34 -10 16 -67 -14 -77 -14
-187 8 -63 12 -138 34 -166 48 -117 60 -325 100 -461 89 -73 -5 -152 2 -207
20 -10 3 -18 1 -18 -4z m420 -54 c99 -18 235 -52 220 -55 -17 -4 -359 63 -368
71 -6 7 69 -1 148 -16z"/>
<path d="M12167 1619 c7 -7 15 -10 18 -7 3 3 -2 9 -12 12 -14 6 -15 5 -6 -5z"/>
<path d="M8595 1570 c-3 -5 -3 -14 0 -20 4 -6 -21 -10 -67 -11 -55 -1 -66 -3
-43 -9 17 -4 56 -8 87 -9 53 -1 59 -3 73 -31 19 -36 28 -39 19 -5 -6 24 -6 24
83 27 l88 3 -92 9 c-81 7 -94 11 -108 32 -17 26 -30 30 -40 14z"/>
<path d="M5440 1453 c-23 -27 -54 -64 -68 -85 -22 -30 -40 -40 -107 -62 -74
-24 -63 -28 28 -10 28 6 28 5 -30 -83 -84 -124 -184 -294 -247 -420 -65 -131
-195 -455 -173 -433 2 3 28 61 57 130 101 242 261 534 396 726 l66 93 90 20
c49 12 98 21 109 21 12 0 19 7 19 20 0 25 1 25 -95 0 -43 -11 -80 -18 -82 -16
-2 2 21 33 51 69 31 36 56 68 56 71 0 20 -34 -1 -70 -41z"/>
<path d="M8480 1496 c0 -10 72 -136 81 -142 5 -3 -6 27 -24 67 -18 40 -38 74
-45 77 -7 2 -12 1 -12 -2z"/>
<path d="M8154 1414 c4 -21 10 -52 13 -68 l6 -30 -39 31 c-73 58 -154 91 -154
62 0 -5 16 -17 37 -25 40 -17 153 -94 153 -105 0 -4 -10 -10 -22 -14 -22 -8
-22 -8 5 -12 25 -4 27 -8 28 -51 1 -26 3 -38 6 -27 16 77 10 76 70 10 54 -59
54 -59 32 -18 -12 23 -40 63 -61 89 -21 26 -38 57 -38 71 0 36 -21 112 -33
120 -6 4 -7 -8 -3 -33z"/>
<path d="M8233 1404 c-4 -12 11 -32 53 -70 66 -59 94 -72 48 -21 -16 17 -41
45 -54 61 l-25 28 68 -7 c41 -4 67 -3 67 3 0 14 -36 22 -98 22 -40 0 -54 -4
-59 -16z"/>
<path d="M3709 1353 c-108 -94 -212 -200 -273 -278 -60 -77 -116 -158 -116
-170 0 -3 33 34 74 82 71 86 191 205 330 330 38 34 65 66 62 72 -11 18 -21 13
-77 -36z"/>
<path d="M3445 1297 c-39 -19 -104 -61 -145 -94 -132 -105 -412 -407 -575
-618 -21 -27 6 -3 60 55 187 200 490 497 560 548 39 29 100 67 137 84 65 32
88 58 50 58 -10 0 -49 -15 -87 -33z"/>
<path d="M5717 1305 c-54 -8 -110 -16 -125 -18 -15 -2 96 -3 245 -3 150 1 273
4 273 9 0 29 -217 36 -393 12z"/>
<path d="M3173 1271 c-140 -48 -276 -176 -692 -649 -128 -146 -39 -65 244 222
302 306 374 366 483 401 29 10 51 23 49 29 -6 18 -28 17 -84 -3z"/>
<path d="M2671 1240 c-63 -29 -201 -173 -370 -385 -79 -99 -165 -202 -190
-230 -78 -83 -89 -101 -34 -56 61 51 152 150 337 369 186 220 291 307 342 283
30 -13 31 3 2 23 -28 20 -34 20 -87 -4z"/>
<path d="M6470 1213 c-23 -20 -56 -57 -73 -82 l-30 -46 69 64 c38 36 75 70 82
77 9 8 10 14 3 18 -5 4 -29 -10 -51 -31z"/>
<path d="M8152 1210 c0 -19 2 -27 5 -17 2 9 2 25 0 35 -3 9 -5 1 -5 -18z"/>
<path d="M7946 1208 c-3 -13 -6 -33 -6 -46 0 -23 0 -23 -30 -5 -39 22 -47 13
-54 -62 l-5 -60 12 47 c7 27 14 49 17 50 3 2 16 -5 29 -14 23 -16 23 -19 11
-65 -19 -69 -57 -154 -83 -182 l-22 -25 25 16 c32 19 74 87 99 158 l20 55 73
-3 c40 -1 79 1 86 6 8 6 -1 9 -27 10 -21 1 -52 7 -68 13 l-28 10 33 30 c18 16
30 34 26 40 -4 7 -22 -4 -45 -27 l-39 -38 0 57 c0 58 -13 76 -24 35z"/>
<path d="M5940 1192 l-35 -16 43 -4 c41 -3 42 -4 42 -40 0 -91 23 -106 106
-68 31 14 60 26 64 26 4 0 3 -19 -2 -43 -11 -55 2 -94 36 -103 15 -3 55 3 95
15 39 12 74 20 78 19 4 -2 10 2 13 7 10 21 -50 15 -109 -10 -48 -20 -66 -23
-81 -15 -25 13 -26 53 -4 105 14 34 14 39 0 54 -15 14 -23 12 -91 -22 -48 -24
-75 -32 -76 -24 -1 6 -1 35 1 64 1 43 -2 53 -18 62 -25 13 -19 14 -62 -7z"/>
<path d="M2245 1142 c-33 -16 -94 -56 -135 -89 -74 -60 -452 -414 -500 -469
l-25 -28 40 29 c61 43 194 157 334 284 200 181 272 234 349 257 36 11 42 11
42 -2 0 -8 5 -12 10 -9 16 10 12 42 -6 49 -28 11 -48 7 -109 -22z"/>
<path d="M1956 1135 c-58 -20 -159 -93 -256 -183 -92 -85 -448 -457 -415 -432
42 30 195 170 353 322 166 160 268 239 338 263 21 7 39 19 39 26 0 18 -16 20
-59 4z"/>
<path d="M884 1114 c-18 -14 -18 -15 4 -4 12 6 22 13 22 15 0 8 -5 6 -26 -11z"/>
<path d="M6568 1028 l-6 -92 -43 -39 c-49 -43 -41 -41 45 15 33 21 70 38 83
38 12 0 23 5 23 11 0 12 -51 8 -82 -5 -14 -7 -15 -3 -7 31 11 49 12 133 0 133
-4 0 -11 -41 -13 -92z"/>
<path d="M7707 1043 c-4 -3 -7 -19 -7 -35 0 -18 -5 -28 -15 -28 -8 0 -22 -11
-31 -25 -12 -18 -22 -24 -35 -20 -20 7 -26 -9 -8 -20 6 -4 8 -14 5 -22 -4 -10
-2 -13 7 -10 7 3 24 -1 38 -9 28 -16 69 -18 69 -4 0 5 -6 7 -12 5 -7 -3 -24 4
-37 14 -21 16 -22 20 -10 39 8 12 17 22 20 22 4 0 18 -18 33 -40 26 -40 72
-77 82 -67 3 3 -4 8 -15 12 -27 8 -57 60 -65 112 l-6 42 50 -26 c39 -20 54
-23 62 -15 9 9 9 12 -1 12 -7 0 -31 16 -54 35 -40 35 -57 41 -70 28z"/>
<path d="M1488 1000 c-25 -17 -77 -63 -115 -103 -73 -77 -219 -274 -210 -283
3 -3 57 55 120 129 129 150 215 231 264 249 18 7 33 18 33 25 0 23 -45 14 -92
-17z"/>
<path d="M6688 1014 c-3 -5 1 -52 7 -104 l13 -95 0 85 c1 81 -9 134 -20 114z"/>
<path d="M7048 934 c-10 -10 52 -164 67 -164 5 0 -46 153 -54 163 -4 4 -10 5
-13 1z"/>
<path d="M6870 908 c0 -8 5 -30 11 -48 11 -30 9 -36 -40 -109 -49 -71 -50 -73
-14 -36 21 22 46 51 55 65 15 21 19 23 27 10 5 -8 17 -24 26 -35 l17 -20 -7
20 c-48 135 -75 191 -75 153z"/>
<path d="M7392 888 c5 -15 204 -121 218 -116 12 4 -192 128 -210 128 -6 0 -10
-5 -8 -12z"/>
<path d="M7211 851 c11 -30 105 -141 120 -141 5 0 -7 21 -27 47 -19 25 -45 63
-57 84 -27 47 -51 54 -36 10z"/>
</g>
</svg>
